{
	"asset":{
		"generator":"Khronos glTF Blender I/O v4.4.56",
		"version":"2.0"
	},
	"scene":0,
	"scenes":[
		{
			"name":"Scene",
			"nodes":[
				0
			]
		}
	],
	"nodes":[
		{
			"mesh":0,
			"name":"Longhouse",
			"rotation":[
				-0.7071069478988647,
				0,
				0,
				0.7071066498756409
			],
			"scale":[
				1.6171228885650635,
				3.1589057445526123,
				0.7962952852249146
			]
		}
	],
	"materials":[
		{
			"doubleSided":true,
			"name":"Material.001",
			"normalTexture":{
				"index":0
			},
			"pbrMetallicRoughness":{
				"baseColorTexture":{
					"index":1
				},
				"metallicFactor":0,
				"roughnessFactor":0.5
			}
		}
	],
	"meshes":[
		{
			"name":"Longhouse",
			"primitives":[
				{
					"attributes":{
						"POSITION":0,
						"NORMAL":1,
						"TEXCOORD_0":2,
						"TANGENT":3
					},
					"indices":4,
					"material":0
				}
			]
		}
	],
	"textures":[
		{
			"sampler":0,
			"source":0
		},
		{
			"sampler":0,
			"source":1
		}
	],
	"images":[
		{
			"mimeType":"image/jpeg",
			"name":"Material_normal",
			"uri":"Material_normal.jpg"
		},
		{
			"mimeType":"image/jpeg",
			"name":"Material_baseColor",
			"uri":"Material_baseColor.jpg"
		}
	],
	"accessors":[
		{
			"bufferView":0,
			"componentType":5126,
			"count":10133,
			"max":[
				0.7770407199859619,
				0.9637293815612793,
				2.4665091037750244
			],
			"min":[
				-0.7769947648048401,
				-0.963729202747345,
				-0.009069058112800121
			],
			"type":"VEC3"
		},
		{
			"bufferView":1,
			"componentType":5126,
			"count":10133,
			"type":"VEC3"
		},
		{
			"bufferView":2,
			"componentType":5126,
			"count":10133,
			"type":"VEC2"
		},
		{
			"bufferView":3,
			"componentType":5126,
			"count":10133,
			"type":"VEC4"
		},
		{
			"bufferView":4,
			"componentType":5123,
			"count":40740,
			"type":"SCALAR"
		}
	],
	"bufferViews":[
		{
			"buffer":0,
			"byteLength":121596,
			"byteOffset":0,
			"target":34962
		},
		{
			"buffer":0,
			"byteLength":121596,
			"byteOffset":121596,
			"target":34962
		},
		{
			"buffer":0,
			"byteLength":81064,
			"byteOffset":243192,
			"target":34962
		},
		{
			"buffer":0,
			"byteLength":162128,
			"byteOffset":324256,
			"target":34962
		},
		{
			"buffer":0,
			"byteLength":81480,
			"byteOffset":486384,
			"target":34963
		}
	],
	"samplers":[
		{
			"magFilter":9729,
			"minFilter":9987
		}
	],
	"buffers":[
		{
			"byteLength":567864,
			"uri":"longhouse.bin"
		}
	]
}
