{
	"asset":{
		"generator":"Khronos glTF Blender I/O v3.6.27",
		"version":"2.0"
	},
	"extensionsUsed":[
		"KHR_materials_specular",
		"KHR_materials_ior"
	],
	"scene":0,
	"scenes":[
		{
			"name":"Scene",
			"nodes":[
				0
			]
		}
	],
	"nodes":[
		{
			"mesh":0,
			"name":"Suzanne",
			"rotation":[
				0.7071068286895752,
				0,
				0,
				0.7071068286895752
			]
		}
	],
	"materials":[
		{
			"doubleSided":true,
			"extensions":{
				"KHR_materials_specular":{
					"specularColorFactor":[
						1.897086119821904,
						1.897086119821904,
						1.897086119821904
					]
				},
				"KHR_materials_ior":{
					"ior":1.4500000476837158
				}
			},
			"name":"None",
			"pbrMetallicRoughness":{
				"baseColorFactor":[
					0.800000011920929,
					0.800000011920929,
					0.800000011920929,
					1
				],
				"metallicFactor":0,
				"roughnessFactor":0.2928932309150696
			}
		}
	],
	"meshes":[
		{
			"name":"Suzanne",
			"primitives":[
				{
					"attributes":{
						"POSITION":0,
						"NORMAL":1,
						"TEXCOORD_0":2,
						"TANGENT":3
					},
					"indices":4,
					"material":0
				}
			]
		}
	],
	"accessors":[
		{
			"bufferView":0,
			"componentType":5126,
			"count":558,
			"max":[
				1.3671870231628418,
				0.8515629768371582,
				0.984375
			],
			"min":[
				-1.3671879768371582,
				-0.8515620231628418,
				-0.984375
			],
			"type":"VEC3"
		},
		{
			"bufferView":1,
			"componentType":5126,
			"count":558,
			"type":"VEC3"
		},
		{
			"bufferView":2,
			"componentType":5126,
			"count":558,
			"type":"VEC2"
		},
		{
			"bufferView":3,
			"componentType":5126,
			"count":558,
			"type":"VEC4"
		},
		{
			"bufferView":4,
			"componentType":5123,
			"count":2901,
			"type":"SCALAR"
		}
	],
	"bufferViews":[
		{
			"buffer":0,
			"byteLength":6696,
			"byteOffset":0,
			"target":34962
		},
		{
			"buffer":0,
			"byteLength":6696,
			"byteOffset":6696,
			"target":34962
		},
		{
			"buffer":0,
			"byteLength":4464,
			"byteOffset":13392,
			"target":34962
		},
		{
			"buffer":0,
			"byteLength":8928,
			"byteOffset":17856,
			"target":34962
		},
		{
			"buffer":0,
			"byteLength":5802,
			"byteOffset":26784,
			"target":34963
		}
	],
	"buffers":[
		{
			"byteLength":32588,
			"uri":"suzanne.bin"
		}
	]
}
