{
	"asset":{
		"generator":"Khronos glTF Blender I/O v4.4.56",
		"version":"2.0"
	},
	"scene":0,
	"scenes":[
		{
			"name":"Scene",
			"nodes":[
				0
			]
		}
	],
	"nodes":[
		{
			"mesh":0,
			"name":"Rock_3"
		}
	],
	"materials":[
		{
			"doubleSided":true,
			"name":"Rock"
		}
	],
	"meshes":[
		{
			"name":"Cube.004",
			"primitives":[
				{
					"attributes":{
						"POSITION":0,
						"NORMAL":1,
						"TEXCOORD_0":2,
						"TANGENT":3
					},
					"indices":4,
					"material":0
				}
			]
		}
	],
	"accessors":[
		{
			"bufferView":0,
			"componentType":5126,
			"count":1033,
			"max":[
				0.36539578437805176,
				1.1872820854187012,
				0.44592878222465515
			],
			"min":[
				-0.4782258868217468,
				-0.12579791247844696,
				-0.4512418806552887
			],
			"type":"VEC3"
		},
		{
			"bufferView":1,
			"componentType":5126,
			"count":1033,
			"type":"VEC3"
		},
		{
			"bufferView":2,
			"componentType":5126,
			"count":1033,
			"type":"VEC2"
		},
		{
			"bufferView":3,
			"componentType":5126,
			"count":1033,
			"type":"VEC4"
		},
		{
			"bufferView":4,
			"componentType":5123,
			"count":2136,
			"type":"SCALAR"
		}
	],
	"bufferViews":[
		{
			"buffer":0,
			"byteLength":12396,
			"byteOffset":0,
			"target":34962
		},
		{
			"buffer":0,
			"byteLength":12396,
			"byteOffset":12396,
			"target":34962
		},
		{
			"buffer":0,
			"byteLength":8264,
			"byteOffset":24792,
			"target":34962
		},
		{
			"buffer":0,
			"byteLength":16528,
			"byteOffset":33056,
			"target":34962
		},
		{
			"buffer":0,
			"byteLength":4272,
			"byteOffset":49584,
			"target":34963
		}
	],
	"buffers":[
		{
			"byteLength":53856,
			"uri":"rock_3.bin"
		}
	]
}
