{
	"asset":{
		"generator":"Khronos glTF Blender I/O v3.6.27",
		"version":"2.0"
	},
	"extensionsUsed":[
		"KHR_materials_specular",
		"KHR_materials_ior"
	],
	"scene":0,
	"scenes":[
		{
			"name":"Scene",
			"nodes":[
				0
			]
		}
	],
	"nodes":[
		{
			"mesh":0,
			"name":"Tree-01-2"
		}
	],
	"materials":[
		{
			"doubleSided":true,
			"extensions":{
				"KHR_materials_specular":{
					"specularColorFactor":[
						0,
						0,
						0
					]
				},
				"KHR_materials_ior":{
					"ior":1.4500000476837158
				}
			},
			"name":"trunk-01",
			"pbrMetallicRoughness":{
				"baseColorTexture":{
					"index":0
				},
				"metallicFactor":0,
				"roughnessFactor":0.3431818187236786
			}
		},
		{
			"alphaMode":"BLEND",
			"doubleSided":true,
			"extensions":{
				"KHR_materials_specular":{
					"specularColorFactor":[
						0,
						0,
						0
					]
				},
				"KHR_materials_ior":{
					"ior":1.4500000476837158
				}
			},
			"name":"branch-1-01",
			"pbrMetallicRoughness":{
				"baseColorTexture":{
					"index":1
				},
				"metallicFactor":0,
				"roughnessFactor":0.5
			}
		},
		{
			"alphaMode":"BLEND",
			"doubleSided":true,
			"extensions":{
				"KHR_materials_specular":{
					"specularColorFactor":[
						0,
						0,
						0
					]
				},
				"KHR_materials_ior":{
					"ior":1.4500000476837158
				}
			},
			"name":"branch-1-02",
			"pbrMetallicRoughness":{
				"baseColorTexture":{
					"index":2
				},
				"metallicFactor":0,
				"roughnessFactor":0.5
			}
		}
	],
	"meshes":[
		{
			"name":"BezierCurve.036",
			"primitives":[
				{
					"attributes":{
						"POSITION":0,
						"NORMAL":1,
						"TEXCOORD_0":2,
						"TANGENT":3
					},
					"indices":4,
					"material":0
				},
				{
					"attributes":{
						"POSITION":5,
						"NORMAL":6,
						"TEXCOORD_0":7,
						"TANGENT":8
					},
					"indices":9,
					"material":1
				},
				{
					"attributes":{
						"POSITION":10,
						"NORMAL":11,
						"TEXCOORD_0":12,
						"TANGENT":13
					},
					"indices":14,
					"material":2
				}
			]
		}
	],
	"textures":[
		{
			"sampler":0,
			"source":0
		},
		{
			"sampler":0,
			"source":1
		},
		{
			"sampler":0,
			"source":2
		}
	],
	"images":[
		{
			"mimeType":"image/jpeg",
			"name":"bark",
			"uri":"bark.jpg"
		},
		{
			"mimeType":"image/png",
			"name":"branch-01",
			"uri":"branch-01.png"
		},
		{
			"mimeType":"image/png",
			"name":"branch-02",
			"uri":"branch-02.png"
		}
	],
	"accessors":[
		{
			"bufferView":0,
			"componentType":5126,
			"count":294,
			"max":[
				0.4250040054321289,
				6.621478080749512,
				1.2354316711425781
			],
			"min":[
				-0.8334903717041016,
				0,
				-0.6084156036376953
			],
			"type":"VEC3"
		},
		{
			"bufferView":1,
			"componentType":5126,
			"count":294,
			"type":"VEC3"
		},
		{
			"bufferView":2,
			"componentType":5126,
			"count":294,
			"type":"VEC2"
		},
		{
			"bufferView":3,
			"componentType":5126,
			"count":294,
			"type":"VEC4"
		},
		{
			"bufferView":4,
			"componentType":5123,
			"count":666,
			"type":"SCALAR"
		},
		{
			"bufferView":5,
			"componentType":5126,
			"count":228,
			"max":[
				3.0291919708251953,
				7.500932693481445,
				3.801664352416992
			],
			"min":[
				-3.3098506927490234,
				1.1391396522521973,
				-3.514754295349121
			],
			"type":"VEC3"
		},
		{
			"bufferView":6,
			"componentType":5126,
			"count":228,
			"type":"VEC3"
		},
		{
			"bufferView":7,
			"componentType":5126,
			"count":228,
			"type":"VEC2"
		},
		{
			"bufferView":8,
			"componentType":5126,
			"count":228,
			"type":"VEC4"
		},
		{
			"bufferView":9,
			"componentType":5123,
			"count":552,
			"type":"SCALAR"
		},
		{
			"bufferView":10,
			"componentType":5126,
			"count":306,
			"max":[
				3.2405309677124023,
				7.38088321685791,
				3.03533935546875
			],
			"min":[
				-3.1619067192077637,
				0.31810951232910156,
				-3.4047069549560547
			],
			"type":"VEC3"
		},
		{
			"bufferView":11,
			"componentType":5126,
			"count":306,
			"type":"VEC3"
		},
		{
			"bufferView":12,
			"componentType":5126,
			"count":306,
			"type":"VEC2"
		},
		{
			"bufferView":13,
			"componentType":5126,
			"count":306,
			"type":"VEC4"
		},
		{
			"bufferView":14,
			"componentType":5123,
			"count":720,
			"type":"SCALAR"
		}
	],
	"bufferViews":[
		{
			"buffer":0,
			"byteLength":3528,
			"byteOffset":0,
			"target":34962
		},
		{
			"buffer":0,
			"byteLength":3528,
			"byteOffset":3528,
			"target":34962
		},
		{
			"buffer":0,
			"byteLength":2352,
			"byteOffset":7056,
			"target":34962
		},
		{
			"buffer":0,
			"byteLength":4704,
			"byteOffset":9408,
			"target":34962
		},
		{
			"buffer":0,
			"byteLength":1332,
			"byteOffset":14112,
			"target":34963
		},
		{
			"buffer":0,
			"byteLength":2736,
			"byteOffset":15444,
			"target":34962
		},
		{
			"buffer":0,
			"byteLength":2736,
			"byteOffset":18180,
			"target":34962
		},
		{
			"buffer":0,
			"byteLength":1824,
			"byteOffset":20916,
			"target":34962
		},
		{
			"buffer":0,
			"byteLength":3648,
			"byteOffset":22740,
			"target":34962
		},
		{
			"buffer":0,
			"byteLength":1104,
			"byteOffset":26388,
			"target":34963
		},
		{
			"buffer":0,
			"byteLength":3672,
			"byteOffset":27492,
			"target":34962
		},
		{
			"buffer":0,
			"byteLength":3672,
			"byteOffset":31164,
			"target":34962
		},
		{
			"buffer":0,
			"byteLength":2448,
			"byteOffset":34836,
			"target":34962
		},
		{
			"buffer":0,
			"byteLength":4896,
			"byteOffset":37284,
			"target":34962
		},
		{
			"buffer":0,
			"byteLength":1440,
			"byteOffset":42180,
			"target":34963
		}
	],
	"samplers":[
		{
			"magFilter":9729,
			"minFilter":9987
		}
	],
	"buffers":[
		{
			"byteLength":43620,
			"uri":"tree_1_2.bin"
		}
	]
}
