{
	"asset":{
		"generator":"Khronos glTF Blender I/O v4.4.56",
		"version":"2.0"
	},
	"extensionsUsed":[
		"KHR_materials_specular"
	],
	"scene":0,
	"scenes":[
		{
			"name":"Scene",
			"nodes":[
				2,
				3,
				4,
				5
			]
		}
	],
	"nodes":[
		{
			"mesh":0,
			"name":"gun_primary",
			"translation":[
				1.8697813749313354,
				2.2858734130859375,
				0.9199215769767761
			]
		},
		{
			"mesh":1,
			"name":"gun_secondary",
			"translation":[
				1.8996838331222534,
				2.283557891845703,
				-1.820940613746643
			]
		},
		{
			"children":[
				0,
				1
			],
			"mesh":2,
			"name":"turret",
			"translation":[
				0,
				7.0978803634643555,
				0
			]
		},
		{
			"mesh":3,
			"name":"hull",
			"translation":[
				-2.0043559074401855,
				4.411346912384033,
				-0.41108208894729614
			]
		},
		{
			"mesh":4,
			"name":"track_l",
			"translation":[
				-0.9373680353164673,
				2.5364937782287598,
				5.310642719268799
			]
		},
		{
			"mesh":5,
			"name":"track_r",
			"translation":[
				-0.9370728731155396,
				2.536400556564331,
				-5.651298522949219
			]
		}
	],
	"materials":[
		{
			"doubleSided":true,
			"extensions":{
				"KHR_materials_specular":{
					"specularFactor":0
				}
			},
			"name":"Body1Mtl",
			"pbrMetallicRoughness":{
				"metallicFactor":0
			}
		},
		{
			"doubleSided":true,
			"extensions":{
				"KHR_materials_specular":{
					"specularFactor":0
				}
			},
			"name":"Body2Mtl",
			"pbrMetallicRoughness":{
				"metallicFactor":0
			}
		},
		{
			"doubleSided":true,
			"extensions":{
				"KHR_materials_specular":{
					"specularFactor":0
				}
			},
			"name":"Tracks1Mtl",
			"pbrMetallicRoughness":{
				"metallicFactor":0
			}
		}
	],
	"meshes":[
		{
			"name":"gun_primary",
			"primitives":[
				{
					"attributes":{
						"POSITION":0,
						"NORMAL":1,
						"TEXCOORD_0":2,
						"TANGENT":3
					},
					"indices":4,
					"material":0
				}
			]
		},
		{
			"name":"gun_secondary",
			"primitives":[
				{
					"attributes":{
						"POSITION":5,
						"NORMAL":6,
						"TEXCOORD_0":7,
						"TANGENT":8
					},
					"indices":9,
					"material":0
				}
			]
		},
		{
			"name":"turret",
			"primitives":[
				{
					"attributes":{
						"POSITION":10,
						"NORMAL":11,
						"TEXCOORD_0":12,
						"TANGENT":13
					},
					"indices":14,
					"material":0
				}
			]
		},
		{
			"name":"hull",
			"primitives":[
				{
					"attributes":{
						"POSITION":15,
						"NORMAL":16,
						"TEXCOORD_0":17,
						"TANGENT":18
					},
					"indices":19,
					"material":1
				}
			]
		},
		{
			"name":"track_l",
			"primitives":[
				{
					"attributes":{
						"POSITION":20,
						"NORMAL":21,
						"TEXCOORD_0":22,
						"TANGENT":23
					},
					"indices":24,
					"material":2
				}
			]
		},
		{
			"name":"track_r",
			"primitives":[
				{
					"attributes":{
						"POSITION":25,
						"NORMAL":26,
						"TEXCOORD_0":27,
						"TANGENT":28
					},
					"indices":29,
					"material":2
				}
			]
		}
	],
	"accessors":[
		{
			"bufferView":0,
			"componentType":5126,
			"count":1695,
			"max":[
				2.273712158203125,
				1.4819893836975098,
				0.2857668995857239
			],
			"min":[
				-10.893341064453125,
				-0.964470386505127,
				-2.014159917831421
			],
			"type":"VEC3"
		},
		{
			"bufferView":1,
			"componentType":5126,
			"count":1695,
			"type":"VEC3"
		},
		{
			"bufferView":2,
			"componentType":5126,
			"count":1695,
			"type":"VEC2"
		},
		{
			"bufferView":3,
			"componentType":5126,
			"count":1695,
			"type":"VEC4"
		},
		{
			"bufferView":4,
			"componentType":5123,
			"count":2322,
			"type":"SCALAR"
		},
		{
			"bufferView":5,
			"componentType":5126,
			"count":546,
			"max":[
				1.3187609910964966,
				0.9654045104980469,
				0.11671698093414307
			],
			"min":[
				-3.508204460144043,
				-0.9777555465698242,
				-1.093366026878357
			],
			"type":"VEC3"
		},
		{
			"bufferView":6,
			"componentType":5126,
			"count":546,
			"type":"VEC3"
		},
		{
			"bufferView":7,
			"componentType":5126,
			"count":546,
			"type":"VEC2"
		},
		{
			"bufferView":8,
			"componentType":5126,
			"count":546,
			"type":"VEC4"
		},
		{
			"bufferView":9,
			"componentType":5123,
			"count":783,
			"type":"SCALAR"
		},
		{
			"bufferView":10,
			"componentType":5126,
			"count":2062,
			"max":[
				2.98248291015625,
				3.281162738800049,
				2.845703125
			],
			"min":[
				-3.239501953125,
				-0.003117084503173828,
				-3.1942138671875
			],
			"type":"VEC3"
		},
		{
			"bufferView":11,
			"componentType":5126,
			"count":2062,
			"type":"VEC3"
		},
		{
			"bufferView":12,
			"componentType":5126,
			"count":2062,
			"type":"VEC2"
		},
		{
			"bufferView":13,
			"componentType":5126,
			"count":2062,
			"type":"VEC4"
		},
		{
			"bufferView":14,
			"componentType":5123,
			"count":2784,
			"type":"SCALAR"
		},
		{
			"bufferView":15,
			"componentType":5126,
			"count":26751,
			"max":[
				13.940818786621094,
				3.875126361846924,
				6.4268293380737305
			],
			"min":[
				-14.793190002441406,
				-4.046943187713623,
				-5.9932146072387695
			],
			"type":"VEC3"
		},
		{
			"bufferView":16,
			"componentType":5126,
			"count":26751,
			"type":"VEC3"
		},
		{
			"bufferView":17,
			"componentType":5126,
			"count":26751,
			"type":"VEC2"
		},
		{
			"bufferView":18,
			"componentType":5126,
			"count":26751,
			"type":"VEC4"
		},
		{
			"bufferView":19,
			"componentType":5123,
			"count":50031,
			"type":"SCALAR"
		},
		{
			"bufferView":20,
			"componentType":5126,
			"count":601,
			"max":[
				11.776845932006836,
				2.299619674682617,
				0.6750741004943848
			],
			"min":[
				-12.197153091430664,
				-2.34108304977417,
				-0.6648917198181152
			],
			"type":"VEC3"
		},
		{
			"bufferView":21,
			"componentType":5126,
			"count":601,
			"type":"VEC3"
		},
		{
			"bufferView":22,
			"componentType":5126,
			"count":601,
			"type":"VEC2"
		},
		{
			"bufferView":23,
			"componentType":5126,
			"count":601,
			"type":"VEC4"
		},
		{
			"bufferView":24,
			"componentType":5123,
			"count":1224,
			"type":"SCALAR"
		},
		{
			"bufferView":25,
			"componentType":5126,
			"count":590,
			"max":[
				11.77655029296875,
				2.299712896347046,
				0.6670465469360352
			],
			"min":[
				-12.19744873046875,
				-2.340991735458374,
				-0.6829290390014648
			],
			"type":"VEC3"
		},
		{
			"bufferView":26,
			"componentType":5126,
			"count":590,
			"type":"VEC3"
		},
		{
			"bufferView":27,
			"componentType":5126,
			"count":590,
			"type":"VEC2"
		},
		{
			"bufferView":28,
			"componentType":5126,
			"count":590,
			"type":"VEC4"
		},
		{
			"bufferView":29,
			"componentType":5123,
			"count":1224,
			"type":"SCALAR"
		}
	],
	"bufferViews":[
		{
			"buffer":0,
			"byteLength":20340,
			"byteOffset":0,
			"target":34962
		},
		{
			"buffer":0,
			"byteLength":20340,
			"byteOffset":20340,
			"target":34962
		},
		{
			"buffer":0,
			"byteLength":13560,
			"byteOffset":40680,
			"target":34962
		},
		{
			"buffer":0,
			"byteLength":27120,
			"byteOffset":54240,
			"target":34962
		},
		{
			"buffer":0,
			"byteLength":4644,
			"byteOffset":81360,
			"target":34963
		},
		{
			"buffer":0,
			"byteLength":6552,
			"byteOffset":86004,
			"target":34962
		},
		{
			"buffer":0,
			"byteLength":6552,
			"byteOffset":92556,
			"target":34962
		},
		{
			"buffer":0,
			"byteLength":4368,
			"byteOffset":99108,
			"target":34962
		},
		{
			"buffer":0,
			"byteLength":8736,
			"byteOffset":103476,
			"target":34962
		},
		{
			"buffer":0,
			"byteLength":1566,
			"byteOffset":112212,
			"target":34963
		},
		{
			"buffer":0,
			"byteLength":24744,
			"byteOffset":113780,
			"target":34962
		},
		{
			"buffer":0,
			"byteLength":24744,
			"byteOffset":138524,
			"target":34962
		},
		{
			"buffer":0,
			"byteLength":16496,
			"byteOffset":163268,
			"target":34962
		},
		{
			"buffer":0,
			"byteLength":32992,
			"byteOffset":179764,
			"target":34962
		},
		{
			"buffer":0,
			"byteLength":5568,
			"byteOffset":212756,
			"target":34963
		},
		{
			"buffer":0,
			"byteLength":321012,
			"byteOffset":218324,
			"target":34962
		},
		{
			"buffer":0,
			"byteLength":321012,
			"byteOffset":539336,
			"target":34962
		},
		{
			"buffer":0,
			"byteLength":214008,
			"byteOffset":860348,
			"target":34962
		},
		{
			"buffer":0,
			"byteLength":428016,
			"byteOffset":1074356,
			"target":34962
		},
		{
			"buffer":0,
			"byteLength":100062,
			"byteOffset":1502372,
			"target":34963
		},
		{
			"buffer":0,
			"byteLength":7212,
			"byteOffset":1602436,
			"target":34962
		},
		{
			"buffer":0,
			"byteLength":7212,
			"byteOffset":1609648,
			"target":34962
		},
		{
			"buffer":0,
			"byteLength":4808,
			"byteOffset":1616860,
			"target":34962
		},
		{
			"buffer":0,
			"byteLength":9616,
			"byteOffset":1621668,
			"target":34962
		},
		{
			"buffer":0,
			"byteLength":2448,
			"byteOffset":1631284,
			"target":34963
		},
		{
			"buffer":0,
			"byteLength":7080,
			"byteOffset":1633732,
			"target":34962
		},
		{
			"buffer":0,
			"byteLength":7080,
			"byteOffset":1640812,
			"target":34962
		},
		{
			"buffer":0,
			"byteLength":4720,
			"byteOffset":1647892,
			"target":34962
		},
		{
			"buffer":0,
			"byteLength":9440,
			"byteOffset":1652612,
			"target":34962
		},
		{
			"buffer":0,
			"byteLength":2448,
			"byteOffset":1662052,
			"target":34963
		}
	],
	"buffers":[
		{
			"byteLength":1664500,
			"uri":"bmp.bin"
		}
	]
}
