{
	"asset":{
		"generator":"Khronos glTF Blender I/O v4.4.56",
		"version":"2.0"
	},
	"extensionsUsed":[
		"KHR_materials_specular"
	],
	"scene":0,
	"scenes":[
		{
			"name":"Scene",
			"nodes":[
				2,
				3,
				4,
				13
			]
		}
	],
	"nodes":[
		{
			"mesh":0,
			"name":"gun_primary",
			"translation":[
				-1.0958340167999268,
				2.295713424682617,
				2.068150043487549
			]
		},
		{
			"mesh":1,
			"name":"gun_secondary",
			"translation":[
				1.6450285911560059,
				2.293397903442383,
				2.098052978515625
			]
		},
		{
			"children":[
				0,
				1
			],
			"mesh":2,
			"name":"turret",
			"translation":[
				0.058799564838409424,
				6.879936218261719,
				0.5833959579467773
			]
		},
		{
			"mesh":3,
			"name":"hull",
			"translation":[
				0.2939697504043579,
				4.203242778778076,
				-1.2225912809371948
			]
		},
		{
			"mesh":4,
			"name":"track_l",
			"translation":[
				-5.427754878997803,
				2.3283896446228027,
				-0.15560388565063477
			]
		},
		{
			"mesh":5,
			"name":"idler_r",
			"translation":[
				-0.11141347885131836,
				0.7995045185089111,
				10.058241844177246
			]
		},
		{
			"mesh":6,
			"name":"sprocket_r",
			"translation":[
				-0.1041269302368164,
				1.1124649047851562,
				-10.744784355163574
			]
		},
		{
			"mesh":7,
			"name":"wheel_r_01",
			"translation":[
				-0.07544994354248047,
				-0.7673482894897461,
				6.861021518707275
			]
		},
		{
			"mesh":8,
			"name":"wheel_r_02",
			"translation":[
				-0.07545089721679688,
				-0.8464093208312988,
				3.7180418968200684
			]
		},
		{
			"mesh":9,
			"name":"wheel_r_03",
			"translation":[
				-0.07547283172607422,
				-0.8464086055755615,
				0.6145368814468384
			]
		},
		{
			"mesh":10,
			"name":"wheel_r_04",
			"translation":[
				-0.07546520233154297,
				-0.8464057445526123,
				-2.121483087539673
			]
		},
		{
			"mesh":11,
			"name":"wheel_r_05",
			"translation":[
				-0.07544755935668945,
				-0.8464059829711914,
				-4.859224319458008
			]
		},
		{
			"mesh":12,
			"name":"wheel_r_06",
			"translation":[
				-0.07544994354248047,
				-0.767336368560791,
				-7.6409525871276855
			]
		},
		{
			"children":[
				5,
				6,
				7,
				8,
				9,
				10,
				11,
				12
			],
			"mesh":13,
			"name":"track_r",
			"translation":[
				5.534185886383057,
				2.328296661376953,
				-0.15530776977539062
			]
		}
	],
	"materials":[
		{
			"doubleSided":true,
			"extensions":{
				"KHR_materials_specular":{
					"specularFactor":0
				}
			},
			"name":"Body1Mtl.001",
			"normalTexture":{
				"index":0
			},
			"pbrMetallicRoughness":{
				"baseColorTexture":{
					"index":1
				},
				"metallicFactor":0
			}
		},
		{
			"doubleSided":true,
			"extensions":{
				"KHR_materials_specular":{
					"specularFactor":0
				}
			},
			"name":"Body2Mtl.001",
			"normalTexture":{
				"index":2
			},
			"pbrMetallicRoughness":{
				"baseColorTexture":{
					"index":3
				},
				"metallicFactor":0
			}
		},
		{
			"doubleSided":true,
			"extensions":{
				"KHR_materials_specular":{
					"specularFactor":0
				}
			},
			"name":"Tracks1Mtl.001",
			"normalTexture":{
				"index":4
			},
			"pbrMetallicRoughness":{
				"baseColorTexture":{
					"index":5
				},
				"metallicFactor":0
			}
		}
	],
	"meshes":[
		{
			"name":"gun_primary",
			"primitives":[
				{
					"attributes":{
						"POSITION":0,
						"NORMAL":1,
						"TEXCOORD_0":2,
						"TANGENT":3
					},
					"indices":4,
					"material":0
				}
			]
		},
		{
			"name":"gun_secondary",
			"primitives":[
				{
					"attributes":{
						"POSITION":5,
						"NORMAL":6,
						"TEXCOORD_0":7,
						"TANGENT":8
					},
					"indices":9,
					"material":0
				}
			]
		},
		{
			"name":"turret",
			"primitives":[
				{
					"attributes":{
						"POSITION":10,
						"NORMAL":11,
						"TEXCOORD_0":12,
						"TANGENT":13
					},
					"indices":14,
					"material":0
				}
			]
		},
		{
			"name":"hull",
			"primitives":[
				{
					"attributes":{
						"POSITION":15,
						"NORMAL":16,
						"TEXCOORD_0":17,
						"TANGENT":18
					},
					"indices":19,
					"material":1
				}
			]
		},
		{
			"name":"track_l",
			"primitives":[
				{
					"attributes":{
						"POSITION":20,
						"NORMAL":21,
						"TEXCOORD_0":22,
						"TANGENT":23
					},
					"indices":24,
					"material":2
				}
			]
		},
		{
			"name":"idler_r",
			"primitives":[
				{
					"attributes":{
						"POSITION":25,
						"NORMAL":26,
						"TEXCOORD_0":27,
						"TANGENT":28
					},
					"indices":29,
					"material":1
				}
			]
		},
		{
			"name":"sprocket_r",
			"primitives":[
				{
					"attributes":{
						"POSITION":30,
						"NORMAL":31,
						"TEXCOORD_0":32,
						"TANGENT":33
					},
					"indices":34,
					"material":1
				}
			]
		},
		{
			"name":"wheel_r_01",
			"primitives":[
				{
					"attributes":{
						"POSITION":35,
						"NORMAL":36,
						"TEXCOORD_0":37,
						"TANGENT":38
					},
					"indices":39,
					"material":1
				}
			]
		},
		{
			"name":"wheel_r_02",
			"primitives":[
				{
					"attributes":{
						"POSITION":40,
						"NORMAL":41,
						"TEXCOORD_0":42,
						"TANGENT":43
					},
					"indices":44,
					"material":1
				}
			]
		},
		{
			"name":"wheel_r_03",
			"primitives":[
				{
					"attributes":{
						"POSITION":45,
						"NORMAL":46,
						"TEXCOORD_0":47,
						"TANGENT":48
					},
					"indices":49,
					"material":1
				}
			]
		},
		{
			"name":"wheel_r_04",
			"primitives":[
				{
					"attributes":{
						"POSITION":50,
						"NORMAL":51,
						"TEXCOORD_0":52,
						"TANGENT":53
					},
					"indices":54,
					"material":1
				}
			]
		},
		{
			"name":"wheel_r_05",
			"primitives":[
				{
					"attributes":{
						"POSITION":55,
						"NORMAL":56,
						"TEXCOORD_0":57,
						"TANGENT":58
					},
					"indices":59,
					"material":1
				}
			]
		},
		{
			"name":"wheel_r_06",
			"primitives":[
				{
					"attributes":{
						"POSITION":60,
						"NORMAL":61,
						"TEXCOORD_0":62,
						"TANGENT":63
					},
					"indices":64,
					"material":1
				}
			]
		},
		{
			"name":"track_r",
			"primitives":[
				{
					"attributes":{
						"POSITION":65,
						"NORMAL":66,
						"TEXCOORD_0":67,
						"TANGENT":68
					},
					"indices":69,
					"material":2
				}
			]
		}
	],
	"textures":[
		{
			"sampler":0,
			"source":0
		},
		{
			"sampler":0,
			"source":1
		},
		{
			"sampler":0,
			"source":2
		},
		{
			"sampler":0,
			"source":3
		},
		{
			"sampler":0,
			"source":4
		},
		{
			"sampler":0,
			"source":5
		}
	],
	"images":[
		{
			"mimeType":"image/png",
			"name":"body1_normal",
			"uri":"body1_normal.png"
		},
		{
			"mimeType":"image/png",
			"name":"body1_albedo",
			"uri":"body1_albedo.png"
		},
		{
			"mimeType":"image/png",
			"name":"body2_normal",
			"uri":"body2_normal.png"
		},
		{
			"mimeType":"image/png",
			"name":"body2_albedo",
			"uri":"body2_albedo.png"
		},
		{
			"mimeType":"image/png",
			"name":"tracks_normal",
			"uri":"tracks_normal.png"
		},
		{
			"mimeType":"image/png",
			"name":"tracks_albedo",
			"uri":"tracks_albedo.png"
		}
	],
	"accessors":[
		{
			"bufferView":0,
			"componentType":5126,
			"count":1695,
			"max":[
				2.014159679412842,
				1.4819893836975098,
				2.273712396621704
			],
			"min":[
				-0.28576716780662537,
				-0.964470386505127,
				-10.893341064453125
			],
			"type":"VEC3"
		},
		{
			"bufferView":1,
			"componentType":5126,
			"count":1695,
			"type":"VEC3"
		},
		{
			"bufferView":2,
			"componentType":5126,
			"count":1695,
			"type":"VEC2"
		},
		{
			"bufferView":3,
			"componentType":5126,
			"count":1695,
			"type":"VEC4"
		},
		{
			"bufferView":4,
			"componentType":5123,
			"count":2322,
			"type":"SCALAR"
		},
		{
			"bufferView":5,
			"componentType":5126,
			"count":546,
			"max":[
				1.093366026878357,
				0.9654045104980469,
				1.3187611103057861
			],
			"min":[
				-0.11671710759401321,
				-0.9777555465698242,
				-3.508204460144043
			],
			"type":"VEC3"
		},
		{
			"bufferView":6,
			"componentType":5126,
			"count":546,
			"type":"VEC3"
		},
		{
			"bufferView":7,
			"componentType":5126,
			"count":546,
			"type":"VEC2"
		},
		{
			"bufferView":8,
			"componentType":5126,
			"count":546,
			"type":"VEC4"
		},
		{
			"bufferView":9,
			"componentType":5123,
			"count":783,
			"type":"SCALAR"
		},
		{
			"bufferView":10,
			"componentType":5126,
			"count":2064,
			"max":[
				3.0183024406433105,
				3.2910027503967285,
				3.180851936340332
			],
			"min":[
				-3.0216152667999268,
				0.006722927093505859,
				-3.0411338806152344
			],
			"type":"VEC3"
		},
		{
			"bufferView":11,
			"componentType":5126,
			"count":2064,
			"type":"VEC3"
		},
		{
			"bufferView":12,
			"componentType":5126,
			"count":2064,
			"type":"VEC2"
		},
		{
			"bufferView":13,
			"componentType":5126,
			"count":2064,
			"type":"VEC4"
		},
		{
			"bufferView":14,
			"componentType":5123,
			"count":2784,
			"type":"SCALAR"
		},
		{
			"bufferView":15,
			"componentType":5126,
			"count":23835,
			"max":[
				5.993216514587402,
				3.875126361846924,
				13.940820693969727
			],
			"min":[
				-6.42683219909668,
				-4.046943187713623,
				-14.793192863464355
			],
			"type":"VEC3"
		},
		{
			"bufferView":16,
			"componentType":5126,
			"count":23835,
			"type":"VEC3"
		},
		{
			"bufferView":17,
			"componentType":5126,
			"count":23835,
			"type":"VEC2"
		},
		{
			"bufferView":18,
			"componentType":5126,
			"count":23835,
			"type":"VEC4"
		},
		{
			"bufferView":19,
			"componentType":5123,
			"count":44379,
			"type":"SCALAR"
		},
		{
			"bufferView":20,
			"componentType":5126,
			"count":601,
			"max":[
				0.664893388748169,
				2.299619674682617,
				11.776846885681152
			],
			"min":[
				-0.6750757694244385,
				-2.34108304977417,
				-12.197154998779297
			],
			"type":"VEC3"
		},
		{
			"bufferView":21,
			"componentType":5126,
			"count":601,
			"type":"VEC3"
		},
		{
			"bufferView":22,
			"componentType":5126,
			"count":601,
			"type":"VEC2"
		},
		{
			"bufferView":23,
			"componentType":5126,
			"count":601,
			"type":"VEC4"
		},
		{
			"bufferView":24,
			"componentType":5123,
			"count":1224,
			"type":"SCALAR"
		},
		{
			"bufferView":25,
			"componentType":5126,
			"count":915,
			"max":[
				0.5543522834777832,
				1.2491880655288696,
				1.2612800598144531
			],
			"min":[
				-0.9656672477722168,
				-1.2596518993377686,
				-1.2606935501098633
			],
			"type":"VEC3"
		},
		{
			"bufferView":26,
			"componentType":5126,
			"count":915,
			"type":"VEC3"
		},
		{
			"bufferView":27,
			"componentType":5126,
			"count":915,
			"type":"VEC2"
		},
		{
			"bufferView":28,
			"componentType":5126,
			"count":915,
			"type":"VEC4"
		},
		{
			"bufferView":29,
			"componentType":5123,
			"count":1584,
			"type":"SCALAR"
		},
		{
			"bufferView":30,
			"componentType":5126,
			"count":698,
			"max":[
				0.7363486289978027,
				1.4556629657745361,
				1.439164161682129
			],
			"min":[
				-1.0336713790893555,
				-1.4666874408721924,
				-1.493819236755371
			],
			"type":"VEC3"
		},
		{
			"bufferView":31,
			"componentType":5126,
			"count":698,
			"type":"VEC3"
		},
		{
			"bufferView":32,
			"componentType":5126,
			"count":698,
			"type":"VEC2"
		},
		{
			"bufferView":33,
			"componentType":5126,
			"count":698,
			"type":"VEC4"
		},
		{
			"bufferView":34,
			"componentType":5123,
			"count":1368,
			"type":"SCALAR"
		},
		{
			"bufferView":35,
			"componentType":5126,
			"count":248,
			"max":[
				0.4584527015686035,
				1.325590968132019,
				1.3255038261413574
			],
			"min":[
				-0.3816356658935547,
				-1.3255887031555176,
				-1.325498104095459
			],
			"type":"VEC3"
		},
		{
			"bufferView":36,
			"componentType":5126,
			"count":248,
			"type":"VEC3"
		},
		{
			"bufferView":37,
			"componentType":5126,
			"count":248,
			"type":"VEC2"
		},
		{
			"bufferView":38,
			"componentType":5126,
			"count":248,
			"type":"VEC4"
		},
		{
			"bufferView":39,
			"componentType":5123,
			"count":588,
			"type":"SCALAR"
		},
		{
			"bufferView":40,
			"componentType":5126,
			"count":233,
			"max":[
				0.4584541320800781,
				1.3255921602249146,
				1.3254776000976562
			],
			"min":[
				-0.3816342353820801,
				-1.3255877494812012,
				-1.325524091720581
			],
			"type":"VEC3"
		},
		{
			"bufferView":41,
			"componentType":5126,
			"count":233,
			"type":"VEC3"
		},
		{
			"bufferView":42,
			"componentType":5126,
			"count":233,
			"type":"VEC2"
		},
		{
			"bufferView":43,
			"componentType":5126,
			"count":233,
			"type":"VEC4"
		},
		{
			"bufferView":44,
			"componentType":5123,
			"count":588,
			"type":"SCALAR"
		},
		{
			"bufferView":45,
			"componentType":5126,
			"count":238,
			"max":[
				0.45847654342651367,
				1.3255914449691772,
				1.3260157108306885
			],
			"min":[
				-0.38161182403564453,
				-1.3255884647369385,
				-1.3260233402252197
			],
			"type":"VEC3"
		},
		{
			"bufferView":46,
			"componentType":5126,
			"count":238,
			"type":"VEC3"
		},
		{
			"bufferView":47,
			"componentType":5126,
			"count":238,
			"type":"VEC2"
		},
		{
			"bufferView":48,
			"componentType":5126,
			"count":238,
			"type":"VEC4"
		},
		{
			"bufferView":49,
			"componentType":5123,
			"count":588,
			"type":"SCALAR"
		},
		{
			"bufferView":50,
			"componentType":5126,
			"count":250,
			"max":[
				0.4584693908691406,
				1.325588583946228,
				1.326012372970581
			],
			"min":[
				-0.3816189765930176,
				-1.3255913257598877,
				-1.3259655237197876
			],
			"type":"VEC3"
		},
		{
			"bufferView":51,
			"componentType":5126,
			"count":250,
			"type":"VEC3"
		},
		{
			"bufferView":52,
			"componentType":5126,
			"count":250,
			"type":"VEC2"
		},
		{
			"bufferView":53,
			"componentType":5126,
			"count":250,
			"type":"VEC4"
		},
		{
			"bufferView":54,
			"componentType":5123,
			"count":588,
			"type":"SCALAR"
		},
		{
			"bufferView":55,
			"componentType":5126,
			"count":253,
			"max":[
				0.4584517478942871,
				1.3255888223648071,
				1.325777292251587
			],
			"min":[
				-0.3816361427307129,
				-1.3255910873413086,
				-1.3252241611480713
			],
			"type":"VEC3"
		},
		{
			"bufferView":56,
			"componentType":5126,
			"count":253,
			"type":"VEC3"
		},
		{
			"bufferView":57,
			"componentType":5126,
			"count":253,
			"type":"VEC2"
		},
		{
			"bufferView":58,
			"componentType":5126,
			"count":253,
			"type":"VEC4"
		},
		{
			"bufferView":59,
			"componentType":5123,
			"count":588,
			"type":"SCALAR"
		},
		{
			"bufferView":60,
			"componentType":5126,
			"count":233,
			"max":[
				0.45845460891723633,
				1.3255890607833862,
				1.3255228996276855
			],
			"min":[
				-0.3816337585449219,
				-1.3255906105041504,
				-1.3254790306091309
			],
			"type":"VEC3"
		},
		{
			"bufferView":61,
			"componentType":5126,
			"count":233,
			"type":"VEC3"
		},
		{
			"bufferView":62,
			"componentType":5126,
			"count":233,
			"type":"VEC2"
		},
		{
			"bufferView":63,
			"componentType":5126,
			"count":233,
			"type":"VEC4"
		},
		{
			"bufferView":64,
			"componentType":5123,
			"count":588,
			"type":"SCALAR"
		},
		{
			"bufferView":65,
			"componentType":5126,
			"count":590,
			"max":[
				0.6829307079315186,
				2.299712896347046,
				11.776551246643066
			],
			"min":[
				-0.6670482158660889,
				-2.340991735458374,
				-12.197450637817383
			],
			"type":"VEC3"
		},
		{
			"bufferView":66,
			"componentType":5126,
			"count":590,
			"type":"VEC3"
		},
		{
			"bufferView":67,
			"componentType":5126,
			"count":590,
			"type":"VEC2"
		},
		{
			"bufferView":68,
			"componentType":5126,
			"count":590,
			"type":"VEC4"
		},
		{
			"bufferView":69,
			"componentType":5123,
			"count":1224,
			"type":"SCALAR"
		}
	],
	"bufferViews":[
		{
			"buffer":0,
			"byteLength":20340,
			"byteOffset":0,
			"target":34962
		},
		{
			"buffer":0,
			"byteLength":20340,
			"byteOffset":20340,
			"target":34962
		},
		{
			"buffer":0,
			"byteLength":13560,
			"byteOffset":40680,
			"target":34962
		},
		{
			"buffer":0,
			"byteLength":27120,
			"byteOffset":54240,
			"target":34962
		},
		{
			"buffer":0,
			"byteLength":4644,
			"byteOffset":81360,
			"target":34963
		},
		{
			"buffer":0,
			"byteLength":6552,
			"byteOffset":86004,
			"target":34962
		},
		{
			"buffer":0,
			"byteLength":6552,
			"byteOffset":92556,
			"target":34962
		},
		{
			"buffer":0,
			"byteLength":4368,
			"byteOffset":99108,
			"target":34962
		},
		{
			"buffer":0,
			"byteLength":8736,
			"byteOffset":103476,
			"target":34962
		},
		{
			"buffer":0,
			"byteLength":1566,
			"byteOffset":112212,
			"target":34963
		},
		{
			"buffer":0,
			"byteLength":24768,
			"byteOffset":113780,
			"target":34962
		},
		{
			"buffer":0,
			"byteLength":24768,
			"byteOffset":138548,
			"target":34962
		},
		{
			"buffer":0,
			"byteLength":16512,
			"byteOffset":163316,
			"target":34962
		},
		{
			"buffer":0,
			"byteLength":33024,
			"byteOffset":179828,
			"target":34962
		},
		{
			"buffer":0,
			"byteLength":5568,
			"byteOffset":212852,
			"target":34963
		},
		{
			"buffer":0,
			"byteLength":286020,
			"byteOffset":218420,
			"target":34962
		},
		{
			"buffer":0,
			"byteLength":286020,
			"byteOffset":504440,
			"target":34962
		},
		{
			"buffer":0,
			"byteLength":190680,
			"byteOffset":790460,
			"target":34962
		},
		{
			"buffer":0,
			"byteLength":381360,
			"byteOffset":981140,
			"target":34962
		},
		{
			"buffer":0,
			"byteLength":88758,
			"byteOffset":1362500,
			"target":34963
		},
		{
			"buffer":0,
			"byteLength":7212,
			"byteOffset":1451260,
			"target":34962
		},
		{
			"buffer":0,
			"byteLength":7212,
			"byteOffset":1458472,
			"target":34962
		},
		{
			"buffer":0,
			"byteLength":4808,
			"byteOffset":1465684,
			"target":34962
		},
		{
			"buffer":0,
			"byteLength":9616,
			"byteOffset":1470492,
			"target":34962
		},
		{
			"buffer":0,
			"byteLength":2448,
			"byteOffset":1480108,
			"target":34963
		},
		{
			"buffer":0,
			"byteLength":10980,
			"byteOffset":1482556,
			"target":34962
		},
		{
			"buffer":0,
			"byteLength":10980,
			"byteOffset":1493536,
			"target":34962
		},
		{
			"buffer":0,
			"byteLength":7320,
			"byteOffset":1504516,
			"target":34962
		},
		{
			"buffer":0,
			"byteLength":14640,
			"byteOffset":1511836,
			"target":34962
		},
		{
			"buffer":0,
			"byteLength":3168,
			"byteOffset":1526476,
			"target":34963
		},
		{
			"buffer":0,
			"byteLength":8376,
			"byteOffset":1529644,
			"target":34962
		},
		{
			"buffer":0,
			"byteLength":8376,
			"byteOffset":1538020,
			"target":34962
		},
		{
			"buffer":0,
			"byteLength":5584,
			"byteOffset":1546396,
			"target":34962
		},
		{
			"buffer":0,
			"byteLength":11168,
			"byteOffset":1551980,
			"target":34962
		},
		{
			"buffer":0,
			"byteLength":2736,
			"byteOffset":1563148,
			"target":34963
		},
		{
			"buffer":0,
			"byteLength":2976,
			"byteOffset":1565884,
			"target":34962
		},
		{
			"buffer":0,
			"byteLength":2976,
			"byteOffset":1568860,
			"target":34962
		},
		{
			"buffer":0,
			"byteLength":1984,
			"byteOffset":1571836,
			"target":34962
		},
		{
			"buffer":0,
			"byteLength":3968,
			"byteOffset":1573820,
			"target":34962
		},
		{
			"buffer":0,
			"byteLength":1176,
			"byteOffset":1577788,
			"target":34963
		},
		{
			"buffer":0,
			"byteLength":2796,
			"byteOffset":1578964,
			"target":34962
		},
		{
			"buffer":0,
			"byteLength":2796,
			"byteOffset":1581760,
			"target":34962
		},
		{
			"buffer":0,
			"byteLength":1864,
			"byteOffset":1584556,
			"target":34962
		},
		{
			"buffer":0,
			"byteLength":3728,
			"byteOffset":1586420,
			"target":34962
		},
		{
			"buffer":0,
			"byteLength":1176,
			"byteOffset":1590148,
			"target":34963
		},
		{
			"buffer":0,
			"byteLength":2856,
			"byteOffset":1591324,
			"target":34962
		},
		{
			"buffer":0,
			"byteLength":2856,
			"byteOffset":1594180,
			"target":34962
		},
		{
			"buffer":0,
			"byteLength":1904,
			"byteOffset":1597036,
			"target":34962
		},
		{
			"buffer":0,
			"byteLength":3808,
			"byteOffset":1598940,
			"target":34962
		},
		{
			"buffer":0,
			"byteLength":1176,
			"byteOffset":1602748,
			"target":34963
		},
		{
			"buffer":0,
			"byteLength":3000,
			"byteOffset":1603924,
			"target":34962
		},
		{
			"buffer":0,
			"byteLength":3000,
			"byteOffset":1606924,
			"target":34962
		},
		{
			"buffer":0,
			"byteLength":2000,
			"byteOffset":1609924,
			"target":34962
		},
		{
			"buffer":0,
			"byteLength":4000,
			"byteOffset":1611924,
			"target":34962
		},
		{
			"buffer":0,
			"byteLength":1176,
			"byteOffset":1615924,
			"target":34963
		},
		{
			"buffer":0,
			"byteLength":3036,
			"byteOffset":1617100,
			"target":34962
		},
		{
			"buffer":0,
			"byteLength":3036,
			"byteOffset":1620136,
			"target":34962
		},
		{
			"buffer":0,
			"byteLength":2024,
			"byteOffset":1623172,
			"target":34962
		},
		{
			"buffer":0,
			"byteLength":4048,
			"byteOffset":1625196,
			"target":34962
		},
		{
			"buffer":0,
			"byteLength":1176,
			"byteOffset":1629244,
			"target":34963
		},
		{
			"buffer":0,
			"byteLength":2796,
			"byteOffset":1630420,
			"target":34962
		},
		{
			"buffer":0,
			"byteLength":2796,
			"byteOffset":1633216,
			"target":34962
		},
		{
			"buffer":0,
			"byteLength":1864,
			"byteOffset":1636012,
			"target":34962
		},
		{
			"buffer":0,
			"byteLength":3728,
			"byteOffset":1637876,
			"target":34962
		},
		{
			"buffer":0,
			"byteLength":1176,
			"byteOffset":1641604,
			"target":34963
		},
		{
			"buffer":0,
			"byteLength":7080,
			"byteOffset":1642780,
			"target":34962
		},
		{
			"buffer":0,
			"byteLength":7080,
			"byteOffset":1649860,
			"target":34962
		},
		{
			"buffer":0,
			"byteLength":4720,
			"byteOffset":1656940,
			"target":34962
		},
		{
			"buffer":0,
			"byteLength":9440,
			"byteOffset":1661660,
			"target":34962
		},
		{
			"buffer":0,
			"byteLength":2448,
			"byteOffset":1671100,
			"target":34963
		}
	],
	"samplers":[
		{
			"magFilter":9729,
			"minFilter":9987
		}
	],
	"buffers":[
		{
			"byteLength":1673548,
			"uri":"bmp.bin"
		}
	]
}
