{
	"asset":{
		"generator":"Khronos glTF Blender I/O v4.4.56",
		"version":"2.0"
	},
	"extensionsUsed":[
		"KHR_materials_specular"
	],
	"scene":0,
	"scenes":[
		{
			"name":"Scene",
			"nodes":[
				6
			]
		}
	],
	"nodes":[
		{
			"mesh":0,
			"name":".BMP-1AM Basurman_Body1Mtl_0"
		},
		{
			"mesh":1,
			"name":".BMP-1AM Basurman_Body2Mtl_0"
		},
		{
			"mesh":2,
			"name":".BMP-1AM Basurman_Tracks1Mtl_0"
		},
		{
			"children":[
				0,
				1,
				2
			],
			"name":".BMP-1AM Basurman",
			"scale":[
				100,
				99.99999237060547,
				99.99999237060547
			],
			"translation":[
				0,
				552.4309692382812,
				0
			]
		},
		{
			"children":[
				3
			],
			"name":"RootNode"
		},
		{
			"children":[
				4
			],
			"name":"bmp1am.fbx",
			"rotation":[
				0.70710688829422,
				0,
				0,
				0.7071066498756409
			],
			"scale":[
				0.009999999776482582,
				0.010000000707805157,
				0.010000000707805157
			]
		},
		{
			"children":[
				5
			],
			"name":"Sketchfab_model",
			"rotation":[
				-0.70710688829422,
				0,
				0,
				0.7071066498756409
			]
		}
	],
	"materials":[
		{
			"doubleSided":true,
			"extensions":{
				"KHR_materials_specular":{
					"specularFactor":0
				}
			},
			"name":"Body1Mtl",
			"pbrMetallicRoughness":{
				"baseColorTexture":{
					"index":0
				},
				"metallicFactor":0
			}
		},
		{
			"doubleSided":true,
			"extensions":{
				"KHR_materials_specular":{
					"specularFactor":0
				}
			},
			"name":"Body2Mtl",
			"pbrMetallicRoughness":{
				"baseColorTexture":{
					"index":1
				},
				"metallicFactor":0
			}
		},
		{
			"doubleSided":true,
			"extensions":{
				"KHR_materials_specular":{
					"specularFactor":0
				}
			},
			"name":"Tracks1Mtl",
			"pbrMetallicRoughness":{
				"baseColorTexture":{
					"index":2
				},
				"metallicFactor":0
			}
		}
	],
	"meshes":[
		{
			"name":".BMP-1AM Basurman_Body1Mtl_0",
			"primitives":[
				{
					"attributes":{
						"POSITION":0,
						"NORMAL":1,
						"TEXCOORD_0":2,
						"TANGENT":3
					},
					"indices":4,
					"material":0
				}
			]
		},
		{
			"name":".BMP-1AM Basurman_Body2Mtl_0",
			"primitives":[
				{
					"attributes":{
						"POSITION":5,
						"NORMAL":6,
						"TEXCOORD_0":7,
						"TANGENT":8
					},
					"indices":9,
					"material":1
				}
			]
		},
		{
			"name":".BMP-1AM Basurman_Tracks1Mtl_0",
			"primitives":[
				{
					"attributes":{
						"POSITION":10,
						"NORMAL":11,
						"TEXCOORD_0":12,
						"TANGENT":13
					},
					"indices":14,
					"material":2
				}
			]
		}
	],
	"textures":[
		{
			"sampler":0,
			"source":0
		},
		{
			"sampler":0,
			"source":1
		},
		{
			"sampler":0,
			"source":2
		}
	],
	"images":[
		{
			"mimeType":"image/png",
			"name":"Body1Mtl_baseColor",
			"uri":"Body1Mtl_baseColor.png"
		},
		{
			"mimeType":"image/png",
			"name":"Body2Mtl_baseColor",
			"uri":"Body2Mtl_baseColor.png"
		},
		{
			"mimeType":"image/png",
			"name":"Tracks1Mtl_baseColor",
			"uri":"Tracks1Mtl_baseColor.png"
		}
	],
	"accessors":[
		{
			"bufferView":0,
			"componentType":5126,
			"count":4085,
			"max":[
				4.14349365234375,
				5.341434001922607,
				2.845703125
			],
			"min":[
				-9.0235595703125,
				1.5704541206359863,
				-3.1942138671875
			],
			"type":"VEC3"
		},
		{
			"bufferView":1,
			"componentType":5126,
			"count":4085,
			"type":"VEC3"
		},
		{
			"bufferView":2,
			"componentType":5126,
			"count":4085,
			"type":"VEC2"
		},
		{
			"bufferView":3,
			"componentType":5126,
			"count":4085,
			"type":"VEC4"
		},
		{
			"bufferView":4,
			"componentType":5123,
			"count":5889,
			"type":"SCALAR"
		},
		{
			"bufferView":5,
			"componentType":5126,
			"count":25007,
			"max":[
				11.93646240234375,
				2.7621636390686035,
				6.0157470703125
			],
			"min":[
				-16.79754638671875,
				-5.159905910491943,
				-6.404296875
			],
			"type":"VEC3"
		},
		{
			"bufferView":6,
			"componentType":5126,
			"count":25007,
			"type":"VEC3"
		},
		{
			"bufferView":7,
			"componentType":5126,
			"count":25007,
			"type":"VEC2"
		},
		{
			"bufferView":8,
			"componentType":5126,
			"count":25007,
			"type":"VEC4"
		},
		{
			"bufferView":9,
			"componentType":5123,
			"count":50031,
			"type":"SCALAR"
		},
		{
			"bufferView":10,
			"componentType":5126,
			"count":1119,
			"max":[
				10.8394775390625,
				-0.6881961822509766,
				5.9857177734375
			],
			"min":[
				-13.134521484375,
				-5.3289008140563965,
				-6.334228515625
			],
			"type":"VEC3"
		},
		{
			"bufferView":11,
			"componentType":5126,
			"count":1119,
			"type":"VEC3"
		},
		{
			"bufferView":12,
			"componentType":5126,
			"count":1119,
			"type":"VEC2"
		},
		{
			"bufferView":13,
			"componentType":5126,
			"count":1119,
			"type":"VEC4"
		},
		{
			"bufferView":14,
			"componentType":5123,
			"count":2448,
			"type":"SCALAR"
		}
	],
	"bufferViews":[
		{
			"buffer":0,
			"byteLength":49020,
			"byteOffset":0,
			"target":34962
		},
		{
			"buffer":0,
			"byteLength":49020,
			"byteOffset":49020,
			"target":34962
		},
		{
			"buffer":0,
			"byteLength":32680,
			"byteOffset":98040,
			"target":34962
		},
		{
			"buffer":0,
			"byteLength":65360,
			"byteOffset":130720,
			"target":34962
		},
		{
			"buffer":0,
			"byteLength":11778,
			"byteOffset":196080,
			"target":34963
		},
		{
			"buffer":0,
			"byteLength":300084,
			"byteOffset":207860,
			"target":34962
		},
		{
			"buffer":0,
			"byteLength":300084,
			"byteOffset":507944,
			"target":34962
		},
		{
			"buffer":0,
			"byteLength":200056,
			"byteOffset":808028,
			"target":34962
		},
		{
			"buffer":0,
			"byteLength":400112,
			"byteOffset":1008084,
			"target":34962
		},
		{
			"buffer":0,
			"byteLength":100062,
			"byteOffset":1408196,
			"target":34963
		},
		{
			"buffer":0,
			"byteLength":13428,
			"byteOffset":1508260,
			"target":34962
		},
		{
			"buffer":0,
			"byteLength":13428,
			"byteOffset":1521688,
			"target":34962
		},
		{
			"buffer":0,
			"byteLength":8952,
			"byteOffset":1535116,
			"target":34962
		},
		{
			"buffer":0,
			"byteLength":17904,
			"byteOffset":1544068,
			"target":34962
		},
		{
			"buffer":0,
			"byteLength":4896,
			"byteOffset":1561972,
			"target":34963
		}
	],
	"samplers":[
		{
			"magFilter":9729,
			"minFilter":9987
		}
	],
	"buffers":[
		{
			"byteLength":1566868,
			"uri":"bmp.bin"
		}
	]
}
