{
	"asset":{
		"generator":"Khronos glTF Blender I/O v3.6.27",
		"version":"2.0"
	},
	"scene":0,
	"scenes":[
		{
			"name":"Scene",
			"nodes":[
				0
			]
		}
	],
	"nodes":[
		{
			"mesh":0,
			"name":"crate",
			"rotation":[
				0.7071068286895752,
				0,
				0,
				0.7071068286895752
			],
			"translation":[
				0,
				-5.453650373965502e-06,
				4.0859672481019516e-06
			]
		}
	],
	"materials":[
		{
			"doubleSided":true,
			"name":"standardSurface2",
			"pbrMetallicRoughness":{
				"metallicFactor":0,
				"roughnessFactor":0.5527864098548889
			}
		}
	],
	"meshes":[
		{
			"name":"crate",
			"primitives":[
				{
					"attributes":{
						"POSITION":0,
						"NORMAL":1,
						"TEXCOORD_0":2,
						"TANGENT":3
					},
					"indices":4,
					"material":0
				}
			]
		}
	],
	"accessors":[
		{
			"bufferView":0,
			"componentType":5126,
			"count":576,
			"max":[
				0.5,
				0.49999791383743286,
				0.499996542930603
			],
			"min":[
				-0.4999999701976776,
				-0.5000021457672119,
				-0.5000033974647522
			],
			"type":"VEC3"
		},
		{
			"bufferView":1,
			"componentType":5126,
			"count":576,
			"type":"VEC3"
		},
		{
			"bufferView":2,
			"componentType":5126,
			"count":576,
			"type":"VEC2"
		},
		{
			"bufferView":3,
			"componentType":5126,
			"count":576,
			"type":"VEC4"
		},
		{
			"bufferView":4,
			"componentType":5123,
			"count":1008,
			"type":"SCALAR"
		}
	],
	"bufferViews":[
		{
			"buffer":0,
			"byteLength":6912,
			"byteOffset":0,
			"target":34962
		},
		{
			"buffer":0,
			"byteLength":6912,
			"byteOffset":6912,
			"target":34962
		},
		{
			"buffer":0,
			"byteLength":4608,
			"byteOffset":13824,
			"target":34962
		},
		{
			"buffer":0,
			"byteLength":9216,
			"byteOffset":18432,
			"target":34962
		},
		{
			"buffer":0,
			"byteLength":2016,
			"byteOffset":27648,
			"target":34963
		}
	],
	"buffers":[
		{
			"byteLength":29664,
			"uri":"crate.bin"
		}
	]
}
