{
	"asset":{
		"generator":"Khronos glTF Blender I/O v4.4.56",
		"version":"2.0"
	},
	"scene":0,
	"scenes":[
		{
			"name":"Scene",
			"nodes":[
				0
			]
		}
	],
	"nodes":[
		{
			"mesh":0,
			"name":"Cube",
			"scale":[
				0.1105329617857933,
				0.1105329617857933,
				0.1105329617857933
			],
			"translation":[
				0.006021185778081417,
				0.0028006434440612793,
				0.07667405903339386
			]
		}
	],
	"meshes":[
		{
			"name":"Cube.002",
			"primitives":[
				{
					"attributes":{
						"POSITION":0,
						"NORMAL":1,
						"TEXCOORD_0":2,
						"TANGENT":3
					},
					"indices":4
				}
			]
		}
	],
	"accessors":[
		{
			"bufferView":0,
			"componentType":5126,
			"count":308,
			"max":[
				6.650909900665283,
				13.931720733642578,
				0.4422072768211365
			],
			"min":[
				-6.650909900665283,
				0.4283885955810547,
				-2.1216211318969727
			],
			"type":"VEC3"
		},
		{
			"bufferView":1,
			"componentType":5126,
			"count":308,
			"type":"VEC3"
		},
		{
			"bufferView":2,
			"componentType":5126,
			"count":308,
			"type":"VEC2"
		},
		{
			"bufferView":3,
			"componentType":5126,
			"count":308,
			"type":"VEC4"
		},
		{
			"bufferView":4,
			"componentType":5123,
			"count":1272,
			"type":"SCALAR"
		}
	],
	"bufferViews":[
		{
			"buffer":0,
			"byteLength":3696,
			"byteOffset":0,
			"target":34962
		},
		{
			"buffer":0,
			"byteLength":3696,
			"byteOffset":3696,
			"target":34962
		},
		{
			"buffer":0,
			"byteLength":2464,
			"byteOffset":7392,
			"target":34962
		},
		{
			"buffer":0,
			"byteLength":4928,
			"byteOffset":9856,
			"target":34962
		},
		{
			"buffer":0,
			"byteLength":2544,
			"byteOffset":14784,
			"target":34963
		}
	],
	"buffers":[
		{
			"byteLength":17328,
			"uri":"man.bin"
		}
	]
}
