{
	"asset":{
		"generator":"Khronos glTF Blender I/O v3.6.27",
		"version":"2.0"
	},
	"extensionsUsed":[
		"KHR_materials_specular",
		"KHR_materials_ior"
	],
	"scene":0,
	"scenes":[
		{
			"name":"Scene",
			"nodes":[
				0
			]
		}
	],
	"nodes":[
		{
			"mesh":0,
			"name":"Tree-01-1"
		}
	],
	"materials":[
		{
			"doubleSided":true,
			"extensions":{
				"KHR_materials_specular":{
					"specularColorFactor":[
						0,
						0,
						0
					]
				},
				"KHR_materials_ior":{
					"ior":1.4500000476837158
				}
			},
			"name":"trunk-01",
			"pbrMetallicRoughness":{
				"baseColorTexture":{
					"index":0
				},
				"metallicFactor":0,
				"roughnessFactor":0.3431818187236786
			}
		},
		{
			"alphaMode":"BLEND",
			"doubleSided":true,
			"extensions":{
				"KHR_materials_specular":{
					"specularColorFactor":[
						0,
						0,
						0
					]
				},
				"KHR_materials_ior":{
					"ior":1.4500000476837158
				}
			},
			"name":"branch-1-01",
			"pbrMetallicRoughness":{
				"baseColorTexture":{
					"index":1
				},
				"metallicFactor":0,
				"roughnessFactor":0.5
			}
		},
		{
			"alphaMode":"BLEND",
			"doubleSided":true,
			"extensions":{
				"KHR_materials_specular":{
					"specularColorFactor":[
						0,
						0,
						0
					]
				},
				"KHR_materials_ior":{
					"ior":1.4500000476837158
				}
			},
			"name":"branch-1-02",
			"pbrMetallicRoughness":{
				"baseColorTexture":{
					"index":2
				},
				"metallicFactor":0,
				"roughnessFactor":0.5
			}
		}
	],
	"meshes":[
		{
			"name":"BezierCurve.033",
			"primitives":[
				{
					"attributes":{
						"POSITION":0,
						"NORMAL":1,
						"TEXCOORD_0":2,
						"TANGENT":3
					},
					"indices":4,
					"material":0
				},
				{
					"attributes":{
						"POSITION":5,
						"NORMAL":6,
						"TEXCOORD_0":7,
						"TANGENT":8
					},
					"indices":9,
					"material":1
				},
				{
					"attributes":{
						"POSITION":10,
						"NORMAL":11,
						"TEXCOORD_0":12,
						"TANGENT":13
					},
					"indices":14,
					"material":2
				}
			]
		}
	],
	"textures":[
		{
			"sampler":0,
			"source":0
		},
		{
			"sampler":0,
			"source":1
		},
		{
			"sampler":0,
			"source":2
		}
	],
	"images":[
		{
			"mimeType":"image/jpeg",
			"name":"bark",
			"uri":"bark.jpg"
		},
		{
			"mimeType":"image/png",
			"name":"branch-01",
			"uri":"branch-01.png"
		},
		{
			"mimeType":"image/png",
			"name":"branch-02",
			"uri":"branch-02.png"
		}
	],
	"accessors":[
		{
			"bufferView":0,
			"componentType":5126,
			"count":294,
			"max":[
				0.4472169876098633,
				6.621478080749512,
				1.2091147899627686
			],
			"min":[
				-0.8112773895263672,
				0,
				-0.6347320079803467
			],
			"type":"VEC3"
		},
		{
			"bufferView":1,
			"componentType":5126,
			"count":294,
			"type":"VEC3"
		},
		{
			"bufferView":2,
			"componentType":5126,
			"count":294,
			"type":"VEC2"
		},
		{
			"bufferView":3,
			"componentType":5126,
			"count":294,
			"type":"VEC4"
		},
		{
			"bufferView":4,
			"componentType":5123,
			"count":666,
			"type":"SCALAR"
		},
		{
			"bufferView":5,
			"componentType":5126,
			"count":215,
			"max":[
				2.1549148559570312,
				7.271019458770752,
				3.109834909439087
			],
			"min":[
				-2.904202461242676,
				1.4613173007965088,
				-3.057264804840088
			],
			"type":"VEC3"
		},
		{
			"bufferView":6,
			"componentType":5126,
			"count":215,
			"type":"VEC3"
		},
		{
			"bufferView":7,
			"componentType":5126,
			"count":215,
			"type":"VEC2"
		},
		{
			"bufferView":8,
			"componentType":5126,
			"count":215,
			"type":"VEC4"
		},
		{
			"bufferView":9,
			"componentType":5123,
			"count":552,
			"type":"SCALAR"
		},
		{
			"bufferView":10,
			"componentType":5126,
			"count":300,
			"max":[
				2.1281089782714844,
				7.389200210571289,
				2.3266398906707764
			],
			"min":[
				-2.762608051300049,
				0.7973039150238037,
				-2.403548240661621
			],
			"type":"VEC3"
		},
		{
			"bufferView":11,
			"componentType":5126,
			"count":300,
			"type":"VEC3"
		},
		{
			"bufferView":12,
			"componentType":5126,
			"count":300,
			"type":"VEC2"
		},
		{
			"bufferView":13,
			"componentType":5126,
			"count":300,
			"type":"VEC4"
		},
		{
			"bufferView":14,
			"componentType":5123,
			"count":720,
			"type":"SCALAR"
		}
	],
	"bufferViews":[
		{
			"buffer":0,
			"byteLength":3528,
			"byteOffset":0,
			"target":34962
		},
		{
			"buffer":0,
			"byteLength":3528,
			"byteOffset":3528,
			"target":34962
		},
		{
			"buffer":0,
			"byteLength":2352,
			"byteOffset":7056,
			"target":34962
		},
		{
			"buffer":0,
			"byteLength":4704,
			"byteOffset":9408,
			"target":34962
		},
		{
			"buffer":0,
			"byteLength":1332,
			"byteOffset":14112,
			"target":34963
		},
		{
			"buffer":0,
			"byteLength":2580,
			"byteOffset":15444,
			"target":34962
		},
		{
			"buffer":0,
			"byteLength":2580,
			"byteOffset":18024,
			"target":34962
		},
		{
			"buffer":0,
			"byteLength":1720,
			"byteOffset":20604,
			"target":34962
		},
		{
			"buffer":0,
			"byteLength":3440,
			"byteOffset":22324,
			"target":34962
		},
		{
			"buffer":0,
			"byteLength":1104,
			"byteOffset":25764,
			"target":34963
		},
		{
			"buffer":0,
			"byteLength":3600,
			"byteOffset":26868,
			"target":34962
		},
		{
			"buffer":0,
			"byteLength":3600,
			"byteOffset":30468,
			"target":34962
		},
		{
			"buffer":0,
			"byteLength":2400,
			"byteOffset":34068,
			"target":34962
		},
		{
			"buffer":0,
			"byteLength":4800,
			"byteOffset":36468,
			"target":34962
		},
		{
			"buffer":0,
			"byteLength":1440,
			"byteOffset":41268,
			"target":34963
		}
	],
	"samplers":[
		{
			"magFilter":9729,
			"minFilter":9987
		}
	],
	"buffers":[
		{
			"byteLength":42708,
			"uri":"tree_1_1.bin"
		}
	]
}
