{
	"asset":{
		"generator":"Khronos glTF Blender I/O v3.6.27",
		"version":"2.0"
	},
	"scene":0,
	"scenes":[
		{
			"name":"Scene",
			"nodes":[
				0,
				1
			]
		}
	],
	"nodes":[
		{
			"mesh":0,
			"name":"leafs",
			"rotation":[
				0.70710688829422,
				0,
				0,
				0.7071066498756409
			]
		},
		{
			"mesh":1,
			"name":"stem",
			"rotation":[
				0.70710688829422,
				0,
				0,
				0.7071066498756409
			],
			"scale":[
				1.228171944618225,
				1.2281720638275146,
				1
			]
		}
	],
	"materials":[
		{
			"doubleSided":true,
			"name":"leafs",
			"pbrMetallicRoughness":{
				"baseColorFactor":[
					0.49584299325942993,
					0.800000011920929,
					0.16515499353408813,
					1
				],
				"metallicFactor":0,
				"roughnessFactor":0.5
			}
		},
		{
			"doubleSided":true,
			"name":"Material.001",
			"pbrMetallicRoughness":{
				"baseColorFactor":[
					0.800000011920929,
					0.800000011920929,
					0.800000011920929,
					1
				],
				"metallicFactor":0,
				"roughnessFactor":0.5
			}
		}
	],
	"meshes":[
		{
			"name":"leafs",
			"primitives":[
				{
					"attributes":{
						"POSITION":0,
						"NORMAL":1,
						"TEXCOORD_0":2
					},
					"indices":3,
					"material":0
				}
			]
		},
		{
			"name":"stem",
			"primitives":[
				{
					"attributes":{
						"POSITION":4,
						"NORMAL":5,
						"TEXCOORD_0":6
					},
					"indices":7,
					"material":1
				}
			]
		}
	],
	"accessors":[
		{
			"bufferView":0,
			"componentType":5126,
			"count":464,
			"max":[
				0.8965049982070923,
				0.7246119976043701,
				-1.3477859497070312
			],
			"min":[
				-1.1955759525299072,
				-0.6797609925270081,
				-2.8608760833740234
			],
			"type":"VEC3"
		},
		{
			"bufferView":1,
			"componentType":5126,
			"count":464,
			"type":"VEC3"
		},
		{
			"bufferView":2,
			"componentType":5126,
			"count":464,
			"type":"VEC2"
		},
		{
			"bufferView":3,
			"componentType":5123,
			"count":1584,
			"type":"SCALAR"
		},
		{
			"bufferView":4,
			"componentType":5126,
			"count":2181,
			"max":[
				0.499565988779068,
				0.21697799861431122,
				0
			],
			"min":[
				-0.5160220265388489,
				-0.22680500149726868,
				-1.9782179594039917
			],
			"type":"VEC3"
		},
		{
			"bufferView":5,
			"componentType":5126,
			"count":2181,
			"type":"VEC3"
		},
		{
			"bufferView":6,
			"componentType":5126,
			"count":2181,
			"type":"VEC2"
		},
		{
			"bufferView":7,
			"componentType":5123,
			"count":8208,
			"type":"SCALAR"
		}
	],
	"bufferViews":[
		{
			"buffer":0,
			"byteLength":5568,
			"byteOffset":0,
			"target":34962
		},
		{
			"buffer":0,
			"byteLength":5568,
			"byteOffset":5568,
			"target":34962
		},
		{
			"buffer":0,
			"byteLength":3712,
			"byteOffset":11136,
			"target":34962
		},
		{
			"buffer":0,
			"byteLength":3168,
			"byteOffset":14848,
			"target":34963
		},
		{
			"buffer":0,
			"byteLength":26172,
			"byteOffset":18016,
			"target":34962
		},
		{
			"buffer":0,
			"byteLength":26172,
			"byteOffset":44188,
			"target":34962
		},
		{
			"buffer":0,
			"byteLength":17448,
			"byteOffset":70360,
			"target":34962
		},
		{
			"buffer":0,
			"byteLength":16416,
			"byteOffset":87808,
			"target":34963
		}
	],
	"buffers":[
		{
			"byteLength":104224,
			"uri":"my_birch.bin"
		}
	]
}
