{
	"asset":{
		"generator":"Khronos glTF Blender I/O v4.4.56",
		"version":"2.0"
	},
	"scene":0,
	"scenes":[
		{
			"name":"Scene",
			"nodes":[
				7
			]
		}
	],
	"nodes":[
		{
			"name":"Bone.003",
			"rotation":[
				0,
				0,
				7.888609052210118e-31,
				1
			],
			"scale":[
				1,
				0.9999999403953552,
				1
			],
			"translation":[
				-5.5220263365470826e-30,
				0.45186638832092285,
				0
			]
		},
		{
			"children":[
				0
			],
			"name":"Bone.001",
			"rotation":[
				0,
				0,
				-3.944304526105059e-31,
				1
			],
			"translation":[
				0,
				0.45186662673950195,
				0
			]
		},
		{
			"children":[
				1
			],
			"name":"Bone.002",
			"translation":[
				-7.888609052210118e-31,
				0.45186638832092285,
				0
			]
		},
		{
			"children":[
				2
			],
			"name":"Bone",
			"rotation":[
				0,
				-3.7445460122413735e-24,
				-3.744545223380468e-24,
				1
			]
		},
		{
			"mesh":0,
			"name":"Cube",
			"skin":0
		},
		{
			"mesh":1,
			"name":"Icosphere",
			"skin":0
		},
		{
			"mesh":2,
			"name":"Icosphere.001",
			"skin":0
		},
		{
			"children":[
				4,
				5,
				6,
				3
			],
			"name":"Armature",
			"scale":[
				0.3534832298755646,
				0.3534832298755646,
				0.3534832298755646
			],
			"translation":[
				0,
				0.8227664828300476,
				0
			]
		}
	],
	"animations":[
		{
			"channels":[
				{
					"sampler":0,
					"target":{
						"node":3,
						"path":"translation"
					}
				},
				{
					"sampler":1,
					"target":{
						"node":3,
						"path":"rotation"
					}
				},
				{
					"sampler":2,
					"target":{
						"node":3,
						"path":"scale"
					}
				},
				{
					"sampler":3,
					"target":{
						"node":2,
						"path":"translation"
					}
				},
				{
					"sampler":4,
					"target":{
						"node":2,
						"path":"rotation"
					}
				},
				{
					"sampler":5,
					"target":{
						"node":2,
						"path":"scale"
					}
				},
				{
					"sampler":6,
					"target":{
						"node":1,
						"path":"translation"
					}
				},
				{
					"sampler":7,
					"target":{
						"node":1,
						"path":"rotation"
					}
				},
				{
					"sampler":8,
					"target":{
						"node":1,
						"path":"scale"
					}
				},
				{
					"sampler":9,
					"target":{
						"node":0,
						"path":"translation"
					}
				},
				{
					"sampler":10,
					"target":{
						"node":0,
						"path":"rotation"
					}
				},
				{
					"sampler":11,
					"target":{
						"node":0,
						"path":"scale"
					}
				}
			],
			"name":"ArmatureAction",
			"samplers":[
				{
					"input":21,
					"interpolation":"STEP",
					"output":22
				},
				{
					"input":21,
					"interpolation":"STEP",
					"output":23
				},
				{
					"input":21,
					"interpolation":"STEP",
					"output":24
				},
				{
					"input":21,
					"interpolation":"STEP",
					"output":25
				},
				{
					"input":26,
					"interpolation":"LINEAR",
					"output":27
				},
				{
					"input":21,
					"interpolation":"STEP",
					"output":28
				},
				{
					"input":21,
					"interpolation":"STEP",
					"output":29
				},
				{
					"input":26,
					"interpolation":"LINEAR",
					"output":30
				},
				{
					"input":21,
					"interpolation":"STEP",
					"output":31
				},
				{
					"input":21,
					"interpolation":"STEP",
					"output":32
				},
				{
					"input":26,
					"interpolation":"LINEAR",
					"output":33
				},
				{
					"input":21,
					"interpolation":"STEP",
					"output":34
				}
			]
		}
	],
	"meshes":[
		{
			"name":"Cube.002",
			"primitives":[
				{
					"attributes":{
						"POSITION":0,
						"NORMAL":1,
						"TEXCOORD_0":2,
						"TANGENT":3,
						"JOINTS_0":4,
						"WEIGHTS_0":5
					},
					"indices":6
				}
			]
		},
		{
			"name":"Icosphere",
			"primitives":[
				{
					"attributes":{
						"POSITION":8,
						"NORMAL":9,
						"TEXCOORD_0":10,
						"TANGENT":11,
						"JOINTS_0":12,
						"WEIGHTS_0":13
					},
					"indices":14
				}
			]
		},
		{
			"name":"Icosphere.001",
			"primitives":[
				{
					"attributes":{
						"POSITION":15,
						"NORMAL":16,
						"TEXCOORD_0":17,
						"TANGENT":18,
						"JOINTS_0":19,
						"WEIGHTS_0":20
					},
					"indices":14
				}
			]
		}
	],
	"skins":[
		{
			"inverseBindMatrices":7,
			"joints":[
				3,
				2,
				1,
				0
			],
			"name":"Armature"
		}
	],
	"accessors":[
		{
			"bufferView":0,
			"componentType":5126,
			"count":308,
			"max":[
				0.7411659359931946,
				1.5427149534225464,
				0.12555253505706787
			],
			"min":[
				-0.729123592376709,
				0.050151702016592026,
				-0.1578350067138672
			],
			"type":"VEC3"
		},
		{
			"bufferView":1,
			"componentType":5126,
			"count":308,
			"type":"VEC3"
		},
		{
			"bufferView":2,
			"componentType":5126,
			"count":308,
			"type":"VEC2"
		},
		{
			"bufferView":3,
			"componentType":5126,
			"count":308,
			"type":"VEC4"
		},
		{
			"bufferView":4,
			"componentType":5121,
			"count":308,
			"type":"VEC4"
		},
		{
			"bufferView":5,
			"componentType":5126,
			"count":308,
			"type":"VEC4"
		},
		{
			"bufferView":6,
			"componentType":5123,
			"count":1272,
			"type":"SCALAR"
		},
		{
			"bufferView":7,
			"componentType":5126,
			"count":4,
			"type":"MAT4"
		},
		{
			"bufferView":8,
			"componentType":5126,
			"count":63,
			"max":[
				-0.1362738013267517,
				1.7668752670288086,
				0.1892494112253189
			],
			"min":[
				-0.49624770879745483,
				1.3883767127990723,
				-0.18924899399280548
			],
			"type":"VEC3"
		},
		{
			"bufferView":9,
			"componentType":5126,
			"count":63,
			"type":"VEC3"
		},
		{
			"bufferView":10,
			"componentType":5126,
			"count":63,
			"type":"VEC2"
		},
		{
			"bufferView":11,
			"componentType":5126,
			"count":63,
			"type":"VEC4"
		},
		{
			"bufferView":12,
			"componentType":5121,
			"count":63,
			"type":"VEC4"
		},
		{
			"bufferView":13,
			"componentType":5126,
			"count":63,
			"type":"VEC4"
		},
		{
			"bufferView":14,
			"componentType":5123,
			"count":240,
			"type":"SCALAR"
		},
		{
			"bufferView":15,
			"componentType":5126,
			"count":63,
			"max":[
				0.514634907245636,
				1.770552635192871,
				0.1892494261264801
			],
			"min":[
				0.15466099977493286,
				1.3920543193817139,
				-0.18924899399280548
			],
			"type":"VEC3"
		},
		{
			"bufferView":16,
			"componentType":5126,
			"count":63,
			"type":"VEC3"
		},
		{
			"bufferView":17,
			"componentType":5126,
			"count":63,
			"type":"VEC2"
		},
		{
			"bufferView":18,
			"componentType":5126,
			"count":63,
			"type":"VEC4"
		},
		{
			"bufferView":19,
			"componentType":5121,
			"count":63,
			"type":"VEC4"
		},
		{
			"bufferView":20,
			"componentType":5126,
			"count":63,
			"type":"VEC4"
		},
		{
			"bufferView":21,
			"componentType":5126,
			"count":2,
			"max":[
				1.25
			],
			"min":[
				0.041666666666666664
			],
			"type":"SCALAR"
		},
		{
			"bufferView":22,
			"componentType":5126,
			"count":2,
			"type":"VEC3"
		},
		{
			"bufferView":23,
			"componentType":5126,
			"count":2,
			"type":"VEC4"
		},
		{
			"bufferView":24,
			"componentType":5126,
			"count":2,
			"type":"VEC3"
		},
		{
			"bufferView":25,
			"componentType":5126,
			"count":2,
			"type":"VEC3"
		},
		{
			"bufferView":26,
			"componentType":5126,
			"count":30,
			"max":[
				1.25
			],
			"min":[
				0.041666666666666664
			],
			"type":"SCALAR"
		},
		{
			"bufferView":27,
			"componentType":5126,
			"count":30,
			"type":"VEC4"
		},
		{
			"bufferView":28,
			"componentType":5126,
			"count":2,
			"type":"VEC3"
		},
		{
			"bufferView":29,
			"componentType":5126,
			"count":2,
			"type":"VEC3"
		},
		{
			"bufferView":30,
			"componentType":5126,
			"count":30,
			"type":"VEC4"
		},
		{
			"bufferView":31,
			"componentType":5126,
			"count":2,
			"type":"VEC3"
		},
		{
			"bufferView":32,
			"componentType":5126,
			"count":2,
			"type":"VEC3"
		},
		{
			"bufferView":33,
			"componentType":5126,
			"count":30,
			"type":"VEC4"
		},
		{
			"bufferView":34,
			"componentType":5126,
			"count":2,
			"type":"VEC3"
		}
	],
	"bufferViews":[
		{
			"buffer":0,
			"byteLength":3696,
			"byteOffset":0,
			"target":34962
		},
		{
			"buffer":0,
			"byteLength":3696,
			"byteOffset":3696,
			"target":34962
		},
		{
			"buffer":0,
			"byteLength":2464,
			"byteOffset":7392,
			"target":34962
		},
		{
			"buffer":0,
			"byteLength":4928,
			"byteOffset":9856,
			"target":34962
		},
		{
			"buffer":0,
			"byteLength":1232,
			"byteOffset":14784,
			"target":34962
		},
		{
			"buffer":0,
			"byteLength":4928,
			"byteOffset":16016,
			"target":34962
		},
		{
			"buffer":0,
			"byteLength":2544,
			"byteOffset":20944,
			"target":34963
		},
		{
			"buffer":0,
			"byteLength":256,
			"byteOffset":23488
		},
		{
			"buffer":0,
			"byteLength":756,
			"byteOffset":23744,
			"target":34962
		},
		{
			"buffer":0,
			"byteLength":756,
			"byteOffset":24500,
			"target":34962
		},
		{
			"buffer":0,
			"byteLength":504,
			"byteOffset":25256,
			"target":34962
		},
		{
			"buffer":0,
			"byteLength":1008,
			"byteOffset":25760,
			"target":34962
		},
		{
			"buffer":0,
			"byteLength":252,
			"byteOffset":26768,
			"target":34962
		},
		{
			"buffer":0,
			"byteLength":1008,
			"byteOffset":27020,
			"target":34962
		},
		{
			"buffer":0,
			"byteLength":480,
			"byteOffset":28028,
			"target":34963
		},
		{
			"buffer":0,
			"byteLength":756,
			"byteOffset":28508,
			"target":34962
		},
		{
			"buffer":0,
			"byteLength":756,
			"byteOffset":29264,
			"target":34962
		},
		{
			"buffer":0,
			"byteLength":504,
			"byteOffset":30020,
			"target":34962
		},
		{
			"buffer":0,
			"byteLength":1008,
			"byteOffset":30524,
			"target":34962
		},
		{
			"buffer":0,
			"byteLength":252,
			"byteOffset":31532,
			"target":34962
		},
		{
			"buffer":0,
			"byteLength":1008,
			"byteOffset":31784,
			"target":34962
		},
		{
			"buffer":0,
			"byteLength":8,
			"byteOffset":32792
		},
		{
			"buffer":0,
			"byteLength":24,
			"byteOffset":32800
		},
		{
			"buffer":0,
			"byteLength":32,
			"byteOffset":32824
		},
		{
			"buffer":0,
			"byteLength":24,
			"byteOffset":32856
		},
		{
			"buffer":0,
			"byteLength":24,
			"byteOffset":32880
		},
		{
			"buffer":0,
			"byteLength":120,
			"byteOffset":32904
		},
		{
			"buffer":0,
			"byteLength":480,
			"byteOffset":33024
		},
		{
			"buffer":0,
			"byteLength":24,
			"byteOffset":33504
		},
		{
			"buffer":0,
			"byteLength":24,
			"byteOffset":33528
		},
		{
			"buffer":0,
			"byteLength":480,
			"byteOffset":33552
		},
		{
			"buffer":0,
			"byteLength":24,
			"byteOffset":34032
		},
		{
			"buffer":0,
			"byteLength":24,
			"byteOffset":34056
		},
		{
			"buffer":0,
			"byteLength":480,
			"byteOffset":34080
		},
		{
			"buffer":0,
			"byteLength":24,
			"byteOffset":34560
		}
	],
	"buffers":[
		{
			"byteLength":34584,
			"uri":"player.bin"
		}
	]
}
