{
	"asset":{
		"generator":"Khronos glTF Blender I/O v4.4.56",
		"version":"2.0"
	},
	"extensionsUsed":[
		"KHR_materials_specular"
	],
	"scene":0,
	"scenes":[
		{
			"name":"Scene",
			"nodes":[
				0,
				1,
				2,
				3
			]
		}
	],
	"nodes":[
		{
			"mesh":0,
			"name":"Backpack"
		},
		{
			"mesh":1,
			"name":"Body"
		},
		{
			"mesh":2,
			"name":"Head"
		},
		{
			"mesh":3,
			"name":"Helmet"
		}
	],
	"materials":[
		{
			"doubleSided":true,
			"extensions":{
				"KHR_materials_specular":{
					"specularFactor":0
				}
			},
			"name":"mat0.002",
			"pbrMetallicRoughness":{
				"baseColorTexture":{
					"index":0
				},
				"metallicFactor":0,
				"roughnessFactor":0.830820620059967
			}
		},
		{
			"doubleSided":true,
			"extensions":{
				"KHR_materials_specular":{
					"specularFactor":0
				}
			},
			"name":"mat0.004",
			"pbrMetallicRoughness":{
				"baseColorTexture":{
					"index":1
				},
				"metallicFactor":0,
				"roughnessFactor":0.830820620059967
			}
		},
		{
			"doubleSided":true,
			"extensions":{
				"KHR_materials_specular":{
					"specularFactor":0
				}
			},
			"name":"mat0.003",
			"pbrMetallicRoughness":{
				"baseColorTexture":{
					"index":2
				},
				"metallicFactor":0,
				"roughnessFactor":0.830820620059967
			}
		},
		{
			"doubleSided":true,
			"extensions":{
				"KHR_materials_specular":{
					"specularFactor":0
				}
			},
			"name":"mat0.005",
			"pbrMetallicRoughness":{
				"baseColorTexture":{
					"index":3
				},
				"metallicFactor":0,
				"roughnessFactor":0.830820620059967
			}
		},
		{
			"doubleSided":true,
			"extensions":{
				"KHR_materials_specular":{
					"specularFactor":0
				}
			},
			"name":"mat0.001",
			"pbrMetallicRoughness":{
				"baseColorTexture":{
					"index":4
				},
				"metallicFactor":0,
				"roughnessFactor":0.830820620059967
			}
		},
		{
			"doubleSided":true,
			"extensions":{
				"KHR_materials_specular":{
					"specularFactor":0
				}
			},
			"name":"mat0",
			"pbrMetallicRoughness":{
				"baseColorTexture":{
					"index":5
				},
				"metallicFactor":0,
				"roughnessFactor":0.830820620059967
			}
		}
	],
	"meshes":[
		{
			"name":"Backpack_mat0.002_0",
			"primitives":[
				{
					"attributes":{
						"POSITION":0,
						"NORMAL":1,
						"TEXCOORD_0":2,
						"TANGENT":3
					},
					"indices":4,
					"material":0
				}
			]
		},
		{
			"name":"Limbs_mat0.004_0",
			"primitives":[
				{
					"attributes":{
						"POSITION":5,
						"NORMAL":6,
						"TEXCOORD_0":7,
						"TANGENT":8
					},
					"indices":9,
					"material":1
				},
				{
					"attributes":{
						"POSITION":10,
						"NORMAL":11,
						"TEXCOORD_0":12,
						"TANGENT":13
					},
					"indices":14,
					"material":2
				},
				{
					"attributes":{
						"POSITION":15,
						"NORMAL":16,
						"TEXCOORD_0":17,
						"TANGENT":18
					},
					"indices":19,
					"material":3
				}
			]
		},
		{
			"name":"Head_mat0.001_0",
			"primitives":[
				{
					"attributes":{
						"POSITION":20,
						"NORMAL":21,
						"TEXCOORD_0":22,
						"TANGENT":23
					},
					"indices":24,
					"material":4
				}
			]
		},
		{
			"name":"Helmet_mat0_0",
			"primitives":[
				{
					"attributes":{
						"POSITION":25,
						"NORMAL":26,
						"TEXCOORD_0":27,
						"TANGENT":28
					},
					"indices":29,
					"material":5
				}
			]
		}
	],
	"textures":[
		{
			"sampler":0,
			"source":0
		},
		{
			"sampler":0,
			"source":1
		},
		{
			"sampler":0,
			"source":1
		},
		{
			"sampler":0,
			"source":2
		},
		{
			"sampler":0,
			"source":2
		},
		{
			"sampler":0,
			"source":3
		}
	],
	"images":[
		{
			"mimeType":"image/png",
			"name":"mat0.002_baseColor",
			"uri":"mat0_002_baseColor.png"
		},
		{
			"mimeType":"image/png",
			"name":"mat0.003_baseColor",
			"uri":"mat0_003_baseColor.png"
		},
		{
			"mimeType":"image/png",
			"name":"mat0.001_baseColor",
			"uri":"mat0_001_baseColor.png"
		},
		{
			"mimeType":"image/png",
			"name":"mat0_baseColor",
			"uri":"mat0_baseColor.png"
		}
	],
	"accessors":[
		{
			"bufferView":0,
			"componentType":5126,
			"count":2322,
			"max":[
				0.24230006337165833,
				1.8232574462890625,
				-0.12082450836896896
			],
			"min":[
				-0.24230040609836578,
				1.0987590551376343,
				-0.3764980137348175
			],
			"type":"VEC3"
		},
		{
			"bufferView":1,
			"componentType":5126,
			"count":2322,
			"type":"VEC3"
		},
		{
			"bufferView":2,
			"componentType":5126,
			"count":2322,
			"type":"VEC2"
		},
		{
			"bufferView":3,
			"componentType":5126,
			"count":2322,
			"type":"VEC4"
		},
		{
			"bufferView":4,
			"componentType":5123,
			"count":2544,
			"type":"SCALAR"
		},
		{
			"bufferView":5,
			"componentType":5126,
			"count":4482,
			"max":[
				0.2146175354719162,
				1.6587955951690674,
				0.4191347062587738
			],
			"min":[
				-0.8410041332244873,
				-0.008371854200959206,
				-0.16356149315834045
			],
			"type":"VEC3"
		},
		{
			"bufferView":6,
			"componentType":5126,
			"count":4482,
			"type":"VEC3"
		},
		{
			"bufferView":7,
			"componentType":5126,
			"count":4482,
			"type":"VEC2"
		},
		{
			"bufferView":8,
			"componentType":5126,
			"count":4482,
			"type":"VEC4"
		},
		{
			"bufferView":9,
			"componentType":5123,
			"count":4692,
			"type":"SCALAR"
		},
		{
			"bufferView":10,
			"componentType":5126,
			"count":7672,
			"max":[
				0.8410035967826843,
				1.7293076515197754,
				0.4554084837436676
			],
			"min":[
				-0.2147534191608429,
				0.7512428760528564,
				-0.19187702238559723
			],
			"type":"VEC3"
		},
		{
			"bufferView":11,
			"componentType":5126,
			"count":7672,
			"type":"VEC3"
		},
		{
			"bufferView":12,
			"componentType":5126,
			"count":7672,
			"type":"VEC2"
		},
		{
			"bufferView":13,
			"componentType":5126,
			"count":7672,
			"type":"VEC4"
		},
		{
			"bufferView":14,
			"componentType":5123,
			"count":8178,
			"type":"SCALAR"
		},
		{
			"bufferView":15,
			"componentType":5126,
			"count":385,
			"max":[
				-0.7187640070915222,
				1.5564297437667847,
				0.4554082751274109
			],
			"min":[
				-0.8173434734344482,
				1.5024827718734741,
				0.3442768454551697
			],
			"type":"VEC3"
		},
		{
			"bufferView":16,
			"componentType":5126,
			"count":385,
			"type":"VEC3"
		},
		{
			"bufferView":17,
			"componentType":5126,
			"count":385,
			"type":"VEC2"
		},
		{
			"bufferView":18,
			"componentType":5126,
			"count":385,
			"type":"VEC4"
		},
		{
			"bufferView":19,
			"componentType":5123,
			"count":417,
			"type":"SCALAR"
		},
		{
			"bufferView":20,
			"componentType":5126,
			"count":3918,
			"max":[
				0.09774991869926453,
				1.9226138591766357,
				0.17412470281124115
			],
			"min":[
				-0.0977499708533287,
				1.6008636951446533,
				-0.054102275520563126
			],
			"type":"VEC3"
		},
		{
			"bufferView":21,
			"componentType":5126,
			"count":3918,
			"type":"VEC3"
		},
		{
			"bufferView":22,
			"componentType":5126,
			"count":3918,
			"type":"VEC2"
		},
		{
			"bufferView":23,
			"componentType":5126,
			"count":3918,
			"type":"VEC4"
		},
		{
			"bufferView":24,
			"componentType":5123,
			"count":4014,
			"type":"SCALAR"
		},
		{
			"bufferView":25,
			"componentType":5126,
			"count":2638,
			"max":[
				0.12455619126558304,
				1.952496886253357,
				0.1914563775062561
			],
			"min":[
				-0.12455619871616364,
				1.6755220890045166,
				-0.09916079044342041
			],
			"type":"VEC3"
		},
		{
			"bufferView":26,
			"componentType":5126,
			"count":2638,
			"type":"VEC3"
		},
		{
			"bufferView":27,
			"componentType":5126,
			"count":2638,
			"type":"VEC2"
		},
		{
			"bufferView":28,
			"componentType":5126,
			"count":2638,
			"type":"VEC4"
		},
		{
			"bufferView":29,
			"componentType":5123,
			"count":3054,
			"type":"SCALAR"
		}
	],
	"bufferViews":[
		{
			"buffer":0,
			"byteLength":27864,
			"byteOffset":0,
			"target":34962
		},
		{
			"buffer":0,
			"byteLength":27864,
			"byteOffset":27864,
			"target":34962
		},
		{
			"buffer":0,
			"byteLength":18576,
			"byteOffset":55728,
			"target":34962
		},
		{
			"buffer":0,
			"byteLength":37152,
			"byteOffset":74304,
			"target":34962
		},
		{
			"buffer":0,
			"byteLength":5088,
			"byteOffset":111456,
			"target":34963
		},
		{
			"buffer":0,
			"byteLength":53784,
			"byteOffset":116544,
			"target":34962
		},
		{
			"buffer":0,
			"byteLength":53784,
			"byteOffset":170328,
			"target":34962
		},
		{
			"buffer":0,
			"byteLength":35856,
			"byteOffset":224112,
			"target":34962
		},
		{
			"buffer":0,
			"byteLength":71712,
			"byteOffset":259968,
			"target":34962
		},
		{
			"buffer":0,
			"byteLength":9384,
			"byteOffset":331680,
			"target":34963
		},
		{
			"buffer":0,
			"byteLength":92064,
			"byteOffset":341064,
			"target":34962
		},
		{
			"buffer":0,
			"byteLength":92064,
			"byteOffset":433128,
			"target":34962
		},
		{
			"buffer":0,
			"byteLength":61376,
			"byteOffset":525192,
			"target":34962
		},
		{
			"buffer":0,
			"byteLength":122752,
			"byteOffset":586568,
			"target":34962
		},
		{
			"buffer":0,
			"byteLength":16356,
			"byteOffset":709320,
			"target":34963
		},
		{
			"buffer":0,
			"byteLength":4620,
			"byteOffset":725676,
			"target":34962
		},
		{
			"buffer":0,
			"byteLength":4620,
			"byteOffset":730296,
			"target":34962
		},
		{
			"buffer":0,
			"byteLength":3080,
			"byteOffset":734916,
			"target":34962
		},
		{
			"buffer":0,
			"byteLength":6160,
			"byteOffset":737996,
			"target":34962
		},
		{
			"buffer":0,
			"byteLength":834,
			"byteOffset":744156,
			"target":34963
		},
		{
			"buffer":0,
			"byteLength":47016,
			"byteOffset":744992,
			"target":34962
		},
		{
			"buffer":0,
			"byteLength":47016,
			"byteOffset":792008,
			"target":34962
		},
		{
			"buffer":0,
			"byteLength":31344,
			"byteOffset":839024,
			"target":34962
		},
		{
			"buffer":0,
			"byteLength":62688,
			"byteOffset":870368,
			"target":34962
		},
		{
			"buffer":0,
			"byteLength":8028,
			"byteOffset":933056,
			"target":34963
		},
		{
			"buffer":0,
			"byteLength":31656,
			"byteOffset":941084,
			"target":34962
		},
		{
			"buffer":0,
			"byteLength":31656,
			"byteOffset":972740,
			"target":34962
		},
		{
			"buffer":0,
			"byteLength":21104,
			"byteOffset":1004396,
			"target":34962
		},
		{
			"buffer":0,
			"byteLength":42208,
			"byteOffset":1025500,
			"target":34962
		},
		{
			"buffer":0,
			"byteLength":6108,
			"byteOffset":1067708,
			"target":34963
		}
	],
	"samplers":[
		{
			"magFilter":9729,
			"minFilter":9987
		}
	],
	"buffers":[
		{
			"byteLength":1073816,
			"uri":"soldier.bin"
		}
	]
}
