{
	"asset":{
		"generator":"Khronos glTF Blender I/O v4.4.56",
		"version":"2.0"
	},
	"scene":0,
	"scenes":[
		{
			"name":"Scene",
			"nodes":[
				0,
				1,
				2,
				3
			]
		}
	],
	"nodes":[
		{
			"mesh":0,
			"name":"Backpack"
		},
		{
			"mesh":1,
			"name":"Body"
		},
		{
			"mesh":2,
			"name":"Head"
		},
		{
			"mesh":3,
			"name":"Helmet"
		}
	],
	"meshes":[
		{
			"name":"Backpack_mat0.002_0",
			"primitives":[
				{
					"attributes":{
						"POSITION":0,
						"NORMAL":1,
						"TEXCOORD_0":2,
						"TANGENT":3
					},
					"indices":4
				}
			]
		},
		{
			"name":"Limbs_mat0.004_0",
			"primitives":[
				{
					"attributes":{
						"POSITION":5,
						"NORMAL":6,
						"TEXCOORD_0":7,
						"TANGENT":8
					},
					"indices":9
				}
			]
		},
		{
			"name":"Head_mat0.001_0",
			"primitives":[
				{
					"attributes":{
						"POSITION":10,
						"NORMAL":11,
						"TEXCOORD_0":12,
						"TANGENT":13
					},
					"indices":14
				}
			]
		},
		{
			"name":"Helmet_mat0_0",
			"primitives":[
				{
					"attributes":{
						"POSITION":15,
						"NORMAL":16,
						"TEXCOORD_0":17,
						"TANGENT":18
					},
					"indices":19
				}
			]
		}
	],
	"accessors":[
		{
			"bufferView":0,
			"componentType":5126,
			"count":2322,
			"max":[
				0.24230006337165833,
				1.8232574462890625,
				-0.12082450836896896
			],
			"min":[
				-0.24230040609836578,
				1.0987590551376343,
				-0.3764980137348175
			],
			"type":"VEC3"
		},
		{
			"bufferView":1,
			"componentType":5126,
			"count":2322,
			"type":"VEC3"
		},
		{
			"bufferView":2,
			"componentType":5126,
			"count":2322,
			"type":"VEC2"
		},
		{
			"bufferView":3,
			"componentType":5126,
			"count":2322,
			"type":"VEC4"
		},
		{
			"bufferView":4,
			"componentType":5123,
			"count":2544,
			"type":"SCALAR"
		},
		{
			"bufferView":5,
			"componentType":5126,
			"count":12539,
			"max":[
				0.8410035967826843,
				1.7293076515197754,
				0.4554084837436676
			],
			"min":[
				-0.8410041332244873,
				-0.008371854200959206,
				-0.19187702238559723
			],
			"type":"VEC3"
		},
		{
			"bufferView":6,
			"componentType":5126,
			"count":12539,
			"type":"VEC3"
		},
		{
			"bufferView":7,
			"componentType":5126,
			"count":12539,
			"type":"VEC2"
		},
		{
			"bufferView":8,
			"componentType":5126,
			"count":12539,
			"type":"VEC4"
		},
		{
			"bufferView":9,
			"componentType":5123,
			"count":13287,
			"type":"SCALAR"
		},
		{
			"bufferView":10,
			"componentType":5126,
			"count":3918,
			"max":[
				0.09774991869926453,
				1.9226138591766357,
				0.17412470281124115
			],
			"min":[
				-0.0977499708533287,
				1.6008636951446533,
				-0.054102275520563126
			],
			"type":"VEC3"
		},
		{
			"bufferView":11,
			"componentType":5126,
			"count":3918,
			"type":"VEC3"
		},
		{
			"bufferView":12,
			"componentType":5126,
			"count":3918,
			"type":"VEC2"
		},
		{
			"bufferView":13,
			"componentType":5126,
			"count":3918,
			"type":"VEC4"
		},
		{
			"bufferView":14,
			"componentType":5123,
			"count":4014,
			"type":"SCALAR"
		},
		{
			"bufferView":15,
			"componentType":5126,
			"count":2638,
			"max":[
				0.12455619126558304,
				1.952496886253357,
				0.1914563775062561
			],
			"min":[
				-0.12455619871616364,
				1.6755220890045166,
				-0.09916079044342041
			],
			"type":"VEC3"
		},
		{
			"bufferView":16,
			"componentType":5126,
			"count":2638,
			"type":"VEC3"
		},
		{
			"bufferView":17,
			"componentType":5126,
			"count":2638,
			"type":"VEC2"
		},
		{
			"bufferView":18,
			"componentType":5126,
			"count":2638,
			"type":"VEC4"
		},
		{
			"bufferView":19,
			"componentType":5123,
			"count":3054,
			"type":"SCALAR"
		}
	],
	"bufferViews":[
		{
			"buffer":0,
			"byteLength":27864,
			"byteOffset":0,
			"target":34962
		},
		{
			"buffer":0,
			"byteLength":27864,
			"byteOffset":27864,
			"target":34962
		},
		{
			"buffer":0,
			"byteLength":18576,
			"byteOffset":55728,
			"target":34962
		},
		{
			"buffer":0,
			"byteLength":37152,
			"byteOffset":74304,
			"target":34962
		},
		{
			"buffer":0,
			"byteLength":5088,
			"byteOffset":111456,
			"target":34963
		},
		{
			"buffer":0,
			"byteLength":150468,
			"byteOffset":116544,
			"target":34962
		},
		{
			"buffer":0,
			"byteLength":150468,
			"byteOffset":267012,
			"target":34962
		},
		{
			"buffer":0,
			"byteLength":100312,
			"byteOffset":417480,
			"target":34962
		},
		{
			"buffer":0,
			"byteLength":200624,
			"byteOffset":517792,
			"target":34962
		},
		{
			"buffer":0,
			"byteLength":26574,
			"byteOffset":718416,
			"target":34963
		},
		{
			"buffer":0,
			"byteLength":47016,
			"byteOffset":744992,
			"target":34962
		},
		{
			"buffer":0,
			"byteLength":47016,
			"byteOffset":792008,
			"target":34962
		},
		{
			"buffer":0,
			"byteLength":31344,
			"byteOffset":839024,
			"target":34962
		},
		{
			"buffer":0,
			"byteLength":62688,
			"byteOffset":870368,
			"target":34962
		},
		{
			"buffer":0,
			"byteLength":8028,
			"byteOffset":933056,
			"target":34963
		},
		{
			"buffer":0,
			"byteLength":31656,
			"byteOffset":941084,
			"target":34962
		},
		{
			"buffer":0,
			"byteLength":31656,
			"byteOffset":972740,
			"target":34962
		},
		{
			"buffer":0,
			"byteLength":21104,
			"byteOffset":1004396,
			"target":34962
		},
		{
			"buffer":0,
			"byteLength":42208,
			"byteOffset":1025500,
			"target":34962
		},
		{
			"buffer":0,
			"byteLength":6108,
			"byteOffset":1067708,
			"target":34963
		}
	],
	"buffers":[
		{
			"byteLength":1073816,
			"uri":"soldier.bin"
		}
	]
}
