{
	"asset":{
		"generator":"Khronos glTF Blender I/O v3.6.27",
		"version":"2.0"
	},
	"scene":0,
	"scenes":[
		{
			"name":"Scene",
			"nodes":[
				0,
				1
			]
		}
	],
	"nodes":[
		{
			"mesh":0,
			"name":"leafes",
			"rotation":[
				0.7071068286895752,
				0,
				0,
				0.7071068286895752
			]
		},
		{
			"mesh":1,
			"name":"stem",
			"rotation":[
				0.7071068286895752,
				0,
				0,
				0.7071068286895752
			]
		}
	],
	"meshes":[
		{
			"name":"leafes",
			"primitives":[
				{
					"attributes":{
						"POSITION":0,
						"NORMAL":1,
						"TEXCOORD_0":2,
						"TANGENT":3
					},
					"indices":4
				}
			]
		},
		{
			"name":"stem",
			"primitives":[
				{
					"attributes":{
						"POSITION":5,
						"NORMAL":6,
						"TEXCOORD_0":7,
						"TANGENT":8
					},
					"indices":9
				}
			]
		}
	],
	"accessors":[
		{
			"bufferView":0,
			"componentType":5126,
			"count":3197,
			"max":[
				1.4485360383987427,
				1.4645709991455078,
				-1.1103919744491577
			],
			"min":[
				-1.5446460247039795,
				-1.6209369897842407,
				-2.9216909408569336
			],
			"type":"VEC3"
		},
		{
			"bufferView":1,
			"componentType":5126,
			"count":3197,
			"type":"VEC3"
		},
		{
			"bufferView":2,
			"componentType":5126,
			"count":3197,
			"type":"VEC2"
		},
		{
			"bufferView":3,
			"componentType":5126,
			"count":3197,
			"type":"VEC4"
		},
		{
			"bufferView":4,
			"componentType":5123,
			"count":18528,
			"type":"SCALAR"
		},
		{
			"bufferView":5,
			"componentType":5126,
			"count":947,
			"max":[
				0.5131629705429077,
				0.3700160086154938,
				0.061795998364686966
			],
			"min":[
				-0.3760859966278076,
				-0.48214399814605713,
				-1.5206550359725952
			],
			"type":"VEC3"
		},
		{
			"bufferView":6,
			"componentType":5126,
			"count":947,
			"type":"VEC3"
		},
		{
			"bufferView":7,
			"componentType":5126,
			"count":947,
			"type":"VEC2"
		},
		{
			"bufferView":8,
			"componentType":5126,
			"count":947,
			"type":"VEC4"
		},
		{
			"bufferView":9,
			"componentType":5123,
			"count":4608,
			"type":"SCALAR"
		}
	],
	"bufferViews":[
		{
			"buffer":0,
			"byteLength":38364,
			"byteOffset":0,
			"target":34962
		},
		{
			"buffer":0,
			"byteLength":38364,
			"byteOffset":38364,
			"target":34962
		},
		{
			"buffer":0,
			"byteLength":25576,
			"byteOffset":76728,
			"target":34962
		},
		{
			"buffer":0,
			"byteLength":51152,
			"byteOffset":102304,
			"target":34962
		},
		{
			"buffer":0,
			"byteLength":37056,
			"byteOffset":153456,
			"target":34963
		},
		{
			"buffer":0,
			"byteLength":11364,
			"byteOffset":190512,
			"target":34962
		},
		{
			"buffer":0,
			"byteLength":11364,
			"byteOffset":201876,
			"target":34962
		},
		{
			"buffer":0,
			"byteLength":7576,
			"byteOffset":213240,
			"target":34962
		},
		{
			"buffer":0,
			"byteLength":15152,
			"byteOffset":220816,
			"target":34962
		},
		{
			"buffer":0,
			"byteLength":9216,
			"byteOffset":235968,
			"target":34963
		}
	],
	"buffers":[
		{
			"byteLength":245184,
			"uri":"tree_1.bin"
		}
	]
}
