{
	"asset":{
		"generator":"Khronos glTF Blender I/O v3.6.27",
		"version":"2.0"
	},
	"extensionsUsed":[
		"KHR_materials_specular",
		"KHR_materials_ior"
	],
	"scene":0,
	"scenes":[
		{
			"name":"Scene",
			"nodes":[
				0
			]
		}
	],
	"nodes":[
		{
			"mesh":0,
			"name":"Tree-01-3"
		}
	],
	"materials":[
		{
			"doubleSided":true,
			"extensions":{
				"KHR_materials_specular":{
					"specularColorFactor":[
						0,
						0,
						0
					]
				},
				"KHR_materials_ior":{
					"ior":1.4500000476837158
				}
			},
			"name":"trunk-01",
			"pbrMetallicRoughness":{
				"baseColorTexture":{
					"index":0
				},
				"metallicFactor":0,
				"roughnessFactor":0.3431818187236786
			}
		},
		{
			"alphaMode":"BLEND",
			"doubleSided":true,
			"extensions":{
				"KHR_materials_specular":{
					"specularColorFactor":[
						0,
						0,
						0
					]
				},
				"KHR_materials_ior":{
					"ior":1.4500000476837158
				}
			},
			"name":"branch-1-02",
			"pbrMetallicRoughness":{
				"baseColorTexture":{
					"index":1
				},
				"metallicFactor":0,
				"roughnessFactor":0.5
			}
		},
		{
			"alphaMode":"BLEND",
			"doubleSided":true,
			"extensions":{
				"KHR_materials_specular":{
					"specularColorFactor":[
						0,
						0,
						0
					]
				},
				"KHR_materials_ior":{
					"ior":1.4500000476837158
				}
			},
			"name":"branch-1-01",
			"pbrMetallicRoughness":{
				"baseColorTexture":{
					"index":2
				},
				"metallicFactor":0,
				"roughnessFactor":0.5
			}
		}
	],
	"meshes":[
		{
			"name":"BezierCurve.038",
			"primitives":[
				{
					"attributes":{
						"POSITION":0,
						"NORMAL":1,
						"TEXCOORD_0":2,
						"TANGENT":3
					},
					"indices":4,
					"material":0
				},
				{
					"attributes":{
						"POSITION":5,
						"NORMAL":6,
						"TEXCOORD_0":7,
						"TANGENT":8
					},
					"indices":9,
					"material":1
				},
				{
					"attributes":{
						"POSITION":10,
						"NORMAL":11,
						"TEXCOORD_0":12,
						"TANGENT":13
					},
					"indices":14,
					"material":2
				}
			]
		}
	],
	"textures":[
		{
			"sampler":0,
			"source":0
		},
		{
			"sampler":0,
			"source":1
		},
		{
			"sampler":0,
			"source":2
		}
	],
	"images":[
		{
			"mimeType":"image/jpeg",
			"name":"bark",
			"uri":"bark.jpg"
		},
		{
			"mimeType":"image/png",
			"name":"branch-02",
			"uri":"branch-02.png"
		},
		{
			"mimeType":"image/png",
			"name":"branch-01",
			"uri":"branch-01.png"
		}
	],
	"accessors":[
		{
			"bufferView":0,
			"componentType":5126,
			"count":178,
			"max":[
				0.6632061004638672,
				6.617419242858887,
				0.9703273773193359
			],
			"min":[
				-0.15199661254882812,
				-0.0067291259765625,
				-0.15307044982910156
			],
			"type":"VEC3"
		},
		{
			"bufferView":1,
			"componentType":5126,
			"count":178,
			"type":"VEC3"
		},
		{
			"bufferView":2,
			"componentType":5126,
			"count":178,
			"type":"VEC2"
		},
		{
			"bufferView":3,
			"componentType":5126,
			"count":178,
			"type":"VEC4"
		},
		{
			"bufferView":4,
			"componentType":5123,
			"count":396,
			"type":"SCALAR"
		},
		{
			"bufferView":5,
			"componentType":5126,
			"count":203,
			"max":[
				3.752124786376953,
				7.342604637145996,
				2.573232650756836
			],
			"min":[
				-2.5328426361083984,
				0.4590144157409668,
				-3.118410110473633
			],
			"type":"VEC3"
		},
		{
			"bufferView":6,
			"componentType":5126,
			"count":203,
			"type":"VEC3"
		},
		{
			"bufferView":7,
			"componentType":5126,
			"count":203,
			"type":"VEC2"
		},
		{
			"bufferView":8,
			"componentType":5126,
			"count":203,
			"type":"VEC4"
		},
		{
			"bufferView":9,
			"componentType":5123,
			"count":480,
			"type":"SCALAR"
		},
		{
			"bufferView":10,
			"componentType":5126,
			"count":146,
			"max":[
				3.4567337036132812,
				7.503784656524658,
				2.983440399169922
			],
			"min":[
				-3.518366813659668,
				1.2224225997924805,
				-3.2257871627807617
			],
			"type":"VEC3"
		},
		{
			"bufferView":11,
			"componentType":5126,
			"count":146,
			"type":"VEC3"
		},
		{
			"bufferView":12,
			"componentType":5126,
			"count":146,
			"type":"VEC2"
		},
		{
			"bufferView":13,
			"componentType":5126,
			"count":146,
			"type":"VEC4"
		},
		{
			"bufferView":14,
			"componentType":5123,
			"count":360,
			"type":"SCALAR"
		}
	],
	"bufferViews":[
		{
			"buffer":0,
			"byteLength":2136,
			"byteOffset":0,
			"target":34962
		},
		{
			"buffer":0,
			"byteLength":2136,
			"byteOffset":2136,
			"target":34962
		},
		{
			"buffer":0,
			"byteLength":1424,
			"byteOffset":4272,
			"target":34962
		},
		{
			"buffer":0,
			"byteLength":2848,
			"byteOffset":5696,
			"target":34962
		},
		{
			"buffer":0,
			"byteLength":792,
			"byteOffset":8544,
			"target":34963
		},
		{
			"buffer":0,
			"byteLength":2436,
			"byteOffset":9336,
			"target":34962
		},
		{
			"buffer":0,
			"byteLength":2436,
			"byteOffset":11772,
			"target":34962
		},
		{
			"buffer":0,
			"byteLength":1624,
			"byteOffset":14208,
			"target":34962
		},
		{
			"buffer":0,
			"byteLength":3248,
			"byteOffset":15832,
			"target":34962
		},
		{
			"buffer":0,
			"byteLength":960,
			"byteOffset":19080,
			"target":34963
		},
		{
			"buffer":0,
			"byteLength":1752,
			"byteOffset":20040,
			"target":34962
		},
		{
			"buffer":0,
			"byteLength":1752,
			"byteOffset":21792,
			"target":34962
		},
		{
			"buffer":0,
			"byteLength":1168,
			"byteOffset":23544,
			"target":34962
		},
		{
			"buffer":0,
			"byteLength":2336,
			"byteOffset":24712,
			"target":34962
		},
		{
			"buffer":0,
			"byteLength":720,
			"byteOffset":27048,
			"target":34963
		}
	],
	"samplers":[
		{
			"magFilter":9729,
			"minFilter":9987
		}
	],
	"buffers":[
		{
			"byteLength":27768,
			"uri":"tree_1_3.bin"
		}
	]
}
