{
	"asset":{
		"generator":"Khronos glTF Blender I/O v4.4.56",
		"version":"2.0"
	},
	"scene":0,
	"scenes":[
		{
			"name":"Scene",
			"nodes":[
				0
			]
		}
	],
	"nodes":[
		{
			"mesh":0,
			"name":"Rock_4"
		}
	],
	"materials":[
		{
			"doubleSided":true,
			"name":"Rock"
		}
	],
	"meshes":[
		{
			"name":"Cube.009",
			"primitives":[
				{
					"attributes":{
						"POSITION":0,
						"NORMAL":1,
						"TEXCOORD_0":2,
						"TANGENT":3
					},
					"indices":4,
					"material":0
				}
			]
		}
	],
	"accessors":[
		{
			"bufferView":0,
			"componentType":5126,
			"count":682,
			"max":[
				0.393062025308609,
				1.9433624744415283,
				0.24923357367515564
			],
			"min":[
				-0.4661616384983063,
				-0.20960000157356262,
				-0.563181459903717
			],
			"type":"VEC3"
		},
		{
			"bufferView":1,
			"componentType":5126,
			"count":682,
			"type":"VEC3"
		},
		{
			"bufferView":2,
			"componentType":5126,
			"count":682,
			"type":"VEC2"
		},
		{
			"bufferView":3,
			"componentType":5126,
			"count":682,
			"type":"VEC4"
		},
		{
			"bufferView":4,
			"componentType":5123,
			"count":1368,
			"type":"SCALAR"
		}
	],
	"bufferViews":[
		{
			"buffer":0,
			"byteLength":8184,
			"byteOffset":0,
			"target":34962
		},
		{
			"buffer":0,
			"byteLength":8184,
			"byteOffset":8184,
			"target":34962
		},
		{
			"buffer":0,
			"byteLength":5456,
			"byteOffset":16368,
			"target":34962
		},
		{
			"buffer":0,
			"byteLength":10912,
			"byteOffset":21824,
			"target":34962
		},
		{
			"buffer":0,
			"byteLength":2736,
			"byteOffset":32736,
			"target":34963
		}
	],
	"buffers":[
		{
			"byteLength":35472,
			"uri":"rock_4.bin"
		}
	]
}
