{
	"asset":{
		"generator":"Khronos glTF Blender I/O v4.4.56",
		"version":"2.0"
	},
	"extensionsUsed":[
		"KHR_materials_specular",
		"KHR_materials_ior"
	],
	"scene":0,
	"scenes":[
		{
			"name":"Scene",
			"nodes":[
				0,
				1
			]
		}
	],
	"nodes":[
		{
			"mesh":0,
			"name":"Object_7",
			"rotation":[
				0,
				-1,
				0,
				1.4163846715969995e-16
			]
		},
		{
			"mesh":1,
			"name":"Object_8",
			"rotation":[
				0,
				-1,
				0,
				1.4163846715969995e-16
			]
		}
	],
	"materials":[
		{
			"doubleSided":true,
			"extensions":{
				"KHR_materials_specular":{
					"specularColorFactor":[
						0.125,
						0.125,
						0.125
					]
				},
				"KHR_materials_ior":{
					"ior":1000
				}
			},
			"name":"BarkMat",
			"normalTexture":{
				"index":0
			},
			"pbrMetallicRoughness":{
				"baseColorTexture":{
					"index":1
				},
				"metallicFactor":0,
				"roughnessFactor":0.8799999952316284
			}
		},
		{
			"alphaMode":"BLEND",
			"doubleSided":true,
			"extensions":{
				"KHR_materials_specular":{
					"specularColorFactor":[
						0.02500000037252903,
						0.02500000037252903,
						0.02500000037252903
					]
				},
				"KHR_materials_ior":{
					"ior":1000
				}
			},
			"name":"BranchMat",
			"normalTexture":{
				"index":2
			},
			"pbrMetallicRoughness":{
				"baseColorTexture":{
					"index":3
				},
				"metallicFactor":0,
				"roughnessFactor":0.675000011920929
			}
		}
	],
	"meshes":[
		{
			"name":"Object_2",
			"primitives":[
				{
					"attributes":{
						"POSITION":0,
						"NORMAL":1,
						"TEXCOORD_0":2,
						"TEXCOORD_1":3,
						"TANGENT":4
					},
					"indices":5,
					"material":0
				}
			]
		},
		{
			"name":"Object_3",
			"primitives":[
				{
					"attributes":{
						"POSITION":6,
						"NORMAL":7,
						"TEXCOORD_0":8,
						"TEXCOORD_1":9,
						"TANGENT":10
					},
					"indices":11,
					"material":1
				}
			]
		}
	],
	"textures":[
		{
			"sampler":0,
			"source":0
		},
		{
			"sampler":0,
			"source":1
		},
		{
			"sampler":0,
			"source":2
		},
		{
			"sampler":1,
			"source":3
		}
	],
	"images":[
		{
			"mimeType":"image/png",
			"name":"Image_1",
			"uri":"Image_1.png"
		},
		{
			"mimeType":"image/png",
			"name":"Image_0",
			"uri":"Image_0.png"
		},
		{
			"mimeType":"image/png",
			"name":"Image_3",
			"uri":"Image_3.png"
		},
		{
			"mimeType":"image/png",
			"name":"Image_2",
			"uri":"Image_2.png"
		}
	],
	"accessors":[
		{
			"bufferView":0,
			"componentType":5126,
			"count":7036,
			"max":[
				4.220541954040527,
				15.790451049804688,
				3.795750856399536
			],
			"min":[
				-3.7297427654266357,
				-1.1641532182693481e-10,
				-4.558099746704102
			],
			"type":"VEC3"
		},
		{
			"bufferView":1,
			"componentType":5126,
			"count":7036,
			"type":"VEC3"
		},
		{
			"bufferView":2,
			"componentType":5126,
			"count":7036,
			"type":"VEC2"
		},
		{
			"bufferView":3,
			"componentType":5126,
			"count":7036,
			"type":"VEC2"
		},
		{
			"bufferView":4,
			"componentType":5126,
			"count":7036,
			"type":"VEC4"
		},
		{
			"bufferView":5,
			"componentType":5123,
			"count":15750,
			"type":"SCALAR"
		},
		{
			"bufferView":6,
			"componentType":5126,
			"count":3885,
			"max":[
				5.877841949462891,
				17.65328598022461,
				5.285534858703613
			],
			"min":[
				-5.449854850769043,
				4.358065605163574,
				-5.7986040115356445
			],
			"type":"VEC3"
		},
		{
			"bufferView":7,
			"componentType":5126,
			"count":3885,
			"type":"VEC3"
		},
		{
			"bufferView":8,
			"componentType":5126,
			"count":3885,
			"type":"VEC2"
		},
		{
			"bufferView":9,
			"componentType":5126,
			"count":3885,
			"type":"VEC2"
		},
		{
			"bufferView":10,
			"componentType":5126,
			"count":3885,
			"type":"VEC4"
		},
		{
			"bufferView":11,
			"componentType":5123,
			"count":3885,
			"type":"SCALAR"
		}
	],
	"bufferViews":[
		{
			"buffer":0,
			"byteLength":84432,
			"byteOffset":0,
			"target":34962
		},
		{
			"buffer":0,
			"byteLength":84432,
			"byteOffset":84432,
			"target":34962
		},
		{
			"buffer":0,
			"byteLength":56288,
			"byteOffset":168864,
			"target":34962
		},
		{
			"buffer":0,
			"byteLength":56288,
			"byteOffset":225152,
			"target":34962
		},
		{
			"buffer":0,
			"byteLength":112576,
			"byteOffset":281440,
			"target":34962
		},
		{
			"buffer":0,
			"byteLength":31500,
			"byteOffset":394016,
			"target":34963
		},
		{
			"buffer":0,
			"byteLength":46620,
			"byteOffset":425516,
			"target":34962
		},
		{
			"buffer":0,
			"byteLength":46620,
			"byteOffset":472136,
			"target":34962
		},
		{
			"buffer":0,
			"byteLength":31080,
			"byteOffset":518756,
			"target":34962
		},
		{
			"buffer":0,
			"byteLength":31080,
			"byteOffset":549836,
			"target":34962
		},
		{
			"buffer":0,
			"byteLength":62160,
			"byteOffset":580916,
			"target":34962
		},
		{
			"buffer":0,
			"byteLength":7770,
			"byteOffset":643076,
			"target":34963
		}
	],
	"samplers":[
		{
			"magFilter":9729,
			"minFilter":9987
		},
		{
			"magFilter":9729,
			"minFilter":9987,
			"wrapS":33071,
			"wrapT":33071
		}
	],
	"buffers":[
		{
			"byteLength":650848,
			"uri":"pine_tree.bin"
		}
	]
}
