{
    "asset" : {
        "generator" : "Khronos glTF Blender I/O v1.6.16",
        "version" : "2.0"
    },
    "scene" : 0,
    "scenes" : [
        {
            "name" : "Scene",
            "nodes" : [
                0,
                1
            ]
        }
    ],
    "nodes" : [
        {
            "mesh" : 0,
            "name" : "leafes",
            "rotation" : [
                0.7071068286895752,
                0,
                0,
                0.7071067094802856
            ]
        },
        {
            "mesh" : 1,
            "name" : "stem",
            "rotation" : [
                0.7071068286895752,
                0,
                0,
                0.7071067094802856
            ]
        }
    ],
    "materials" : [
        {
            "doubleSided" : true,
            "name" : "Default OBJ",
            "pbrMetallicRoughness" : {
                "baseColorFactor" : [
                    0.800000011920929,
                    0.800000011920929,
                    0.800000011920929,
                    1
                ],
                "metallicFactor" : 0,
                "roughnessFactor" : 0.5
            }
        }
    ],
    "meshes" : [
        {
            "name" : "leafes",
            "primitives" : [
                {
                    "attributes" : {
                        "POSITION" : 0,
                        "NORMAL" : 1,
                        "TEXCOORD_0" : 2
                    },
                    "indices" : 3,
                    "material" : 0
                }
            ]
        },
        {
            "name" : "stem",
            "primitives" : [
                {
                    "attributes" : {
                        "POSITION" : 4,
                        "NORMAL" : 5,
                        "TEXCOORD_0" : 6
                    },
                    "indices" : 7,
                    "material" : 0
                }
            ]
        }
    ],
    "accessors" : [
        {
            "bufferView" : 0,
            "componentType" : 5126,
            "count" : 3137,
            "max" : [
                1.4485360383987427,
                1.4645709991455078,
                -1.1103919744491577
            ],
            "min" : [
                -1.5446460247039795,
                -1.6209369897842407,
                -2.9216909408569336
            ],
            "type" : "VEC3"
        },
        {
            "bufferView" : 1,
            "componentType" : 5126,
            "count" : 3137,
            "type" : "VEC3"
        },
        {
            "bufferView" : 2,
            "componentType" : 5126,
            "count" : 3137,
            "type" : "VEC2"
        },
        {
            "bufferView" : 3,
            "componentType" : 5123,
            "count" : 18528,
            "type" : "SCALAR"
        },
        {
            "bufferView" : 4,
            "componentType" : 5126,
            "count" : 937,
            "max" : [
                0.5131629705429077,
                0.3700160086154938,
                0.061795998364686966
            ],
            "min" : [
                -0.3760859966278076,
                -0.48214399814605713,
                -1.5206550359725952
            ],
            "type" : "VEC3"
        },
        {
            "bufferView" : 5,
            "componentType" : 5126,
            "count" : 937,
            "type" : "VEC3"
        },
        {
            "bufferView" : 6,
            "componentType" : 5126,
            "count" : 937,
            "type" : "VEC2"
        },
        {
            "bufferView" : 7,
            "componentType" : 5123,
            "count" : 4608,
            "type" : "SCALAR"
        }
    ],
    "bufferViews" : [
        {
            "buffer" : 0,
            "byteLength" : 37644,
            "byteOffset" : 0
        },
        {
            "buffer" : 0,
            "byteLength" : 37644,
            "byteOffset" : 37644
        },
        {
            "buffer" : 0,
            "byteLength" : 25096,
            "byteOffset" : 75288
        },
        {
            "buffer" : 0,
            "byteLength" : 37056,
            "byteOffset" : 100384
        },
        {
            "buffer" : 0,
            "byteLength" : 11244,
            "byteOffset" : 137440
        },
        {
            "buffer" : 0,
            "byteLength" : 11244,
            "byteOffset" : 148684
        },
        {
            "buffer" : 0,
            "byteLength" : 7496,
            "byteOffset" : 159928
        },
        {
            "buffer" : 0,
            "byteLength" : 9216,
            "byteOffset" : 167424
        }
    ],
    "buffers" : [
        {
            "byteLength" : 176640,
            "uri" : "data:application/octet-stream;base64,"
        }
    ]
}
