{
	"asset":{
		"generator":"Khronos glTF Blender I/O v3.6.27",
		"version":"2.0"
	},
	"scene":0,
	"scenes":[
		{
			"name":"Scene",
			"nodes":[
				0
			]
		}
	],
	"nodes":[
		{
			"mesh":0,
			"name":"tree_2",
			"rotation":[
				0.7071068286895752,
				0,
				0,
				0.7071068286895752
			]
		}
	],
	"meshes":[
		{
			"name":"tree_2",
			"primitives":[
				{
					"attributes":{
						"POSITION":0,
						"NORMAL":1,
						"TEXCOORD_0":2,
						"TANGENT":3
					},
					"indices":4
				}
			]
		}
	],
	"accessors":[
		{
			"bufferView":0,
			"componentType":5126,
			"count":4414,
			"max":[
				0.5941969752311707,
				0.5941979885101318,
				0.024599000811576843
			],
			"min":[
				-0.5941969752311707,
				-0.5941969752311707,
				-2.8990650177001953
			],
			"type":"VEC3"
		},
		{
			"bufferView":1,
			"componentType":5126,
			"count":4414,
			"type":"VEC3"
		},
		{
			"bufferView":2,
			"componentType":5126,
			"count":4414,
			"type":"VEC2"
		},
		{
			"bufferView":3,
			"componentType":5126,
			"count":4414,
			"type":"VEC4"
		},
		{
			"bufferView":4,
			"componentType":5123,
			"count":23784,
			"type":"SCALAR"
		}
	],
	"bufferViews":[
		{
			"buffer":0,
			"byteLength":52968,
			"byteOffset":0,
			"target":34962
		},
		{
			"buffer":0,
			"byteLength":52968,
			"byteOffset":52968,
			"target":34962
		},
		{
			"buffer":0,
			"byteLength":35312,
			"byteOffset":105936,
			"target":34962
		},
		{
			"buffer":0,
			"byteLength":70624,
			"byteOffset":141248,
			"target":34962
		},
		{
			"buffer":0,
			"byteLength":47568,
			"byteOffset":211872,
			"target":34963
		}
	],
	"buffers":[
		{
			"byteLength":259440,
			"uri":"tree_2.bin"
		}
	]
}
