# Blender v2.92.0 OBJ File: ''
# www.blender.org
o crate_Cube.004
v -0.647739 0.352261 1.000000
v -0.647739 1.647739 1.000000
v 0.647739 1.647739 1.000000
v 0.647739 0.352261 1.000000
v -0.647739 0.352261 0.852520
v -0.647739 1.647739 0.852519
v 0.647739 1.647739 0.852519
v 0.647739 0.352261 0.852520
v 0.432660 0.354810 0.975759
v -0.647722 1.434430 0.975759
v 0.432660 0.354810 0.855359
v -0.647722 1.434430 0.855359
v 0.645569 0.567577 0.975759
v -0.434813 1.647198 0.975759
v 0.645569 0.567577 0.855359
v -0.434813 1.647198 0.855359
v 1.000000 2.000000 -1.000000
v -0.647739 1.647739 -1.000000
v -0.647739 0.352261 -1.000000
v 0.647739 0.352261 -1.000000
v 0.647739 1.647739 -1.000000
v -0.647739 1.647739 -0.852520
v -0.647739 0.352261 -0.852520
v 0.647739 0.352261 -0.852520
v 0.647739 1.647739 -0.852520
v 0.432660 1.645190 -0.975759
v -0.647722 0.565570 -0.975759
v 0.432660 1.645191 -0.855359
v -0.647722 0.565570 -0.855359
v 0.645569 1.432423 -0.975759
v -0.434813 0.352802 -0.975759
v 0.645569 1.432423 -0.855359
v -0.434813 0.352802 -0.855359
v -1.000000 2.000000 1.000000
v -0.647739 2.000000 0.647739
v -0.647739 2.000000 -0.647739
v 0.647739 2.000000 -0.647739
v 0.647739 2.000000 0.647739
v -0.647739 1.852520 0.647739
v -0.647739 1.852520 -0.647739
v 0.647739 1.852520 -0.647739
v 0.647739 1.852520 0.647739
v 0.432660 1.975759 0.645190
v -0.647722 1.975759 -0.434430
v 0.432660 1.855359 0.645190
v -0.647722 1.855359 -0.434430
v 0.645569 1.975759 0.432423
v -0.434813 1.975759 -0.647198
v 0.645569 1.855360 0.432423
v -0.434813 1.855359 -0.647198
v -1.000000 0.000000 1.000000
v -1.000000 -0.000001 -1.000000
v 1.000000 -0.000001 -1.000000
v -0.647739 0.000000 0.647739
v -0.647739 -0.000000 -0.647739
v 0.647739 -0.000000 -0.647739
v 0.647739 0.000000 0.647739
v -0.647739 0.147480 0.647739
v -0.647739 0.147480 -0.647739
v 0.647739 0.147480 -0.647739
v 0.647739 0.147480 0.647739
v 0.432660 0.024241 0.645191
v -0.647722 0.024241 -0.434430
v 0.432660 0.144641 0.645191
v -0.647722 0.144641 -0.434430
v 0.645569 0.024241 0.432423
v -0.434813 0.024241 -0.647198
v 0.645569 0.144641 0.432423
v -0.434813 0.144640 -0.647198
v 1.000000 -0.000000 1.000000
v 1.000000 2.000000 1.000000
v 1.000000 0.352261 0.647739
v 1.000000 0.352261 -0.647739
v 1.000000 1.647739 -0.647739
v 1.000000 1.647739 0.647739
v 0.852520 0.352261 0.647739
v 0.852520 0.352261 -0.647739
v 0.852520 1.647739 -0.647739
v 0.852520 1.647739 0.647739
v 0.975759 1.432660 0.645191
v 0.975759 0.352278 -0.434430
v 0.855359 1.432660 0.645191
v 0.855359 0.352278 -0.434430
v 0.975759 1.645569 0.432423
v 0.975759 0.565187 -0.647198
v 0.855360 1.645569 0.432423
v 0.855359 0.565187 -0.647198
v -1.000000 2.000000 -1.000000
v -1.000000 1.647739 0.647739
v -1.000000 1.647739 -0.647739
v -1.000001 0.352261 -0.647739
v -1.000000 0.352262 0.647739
v -0.852520 1.647739 0.647739
v -0.852520 1.647739 -0.647739
v -0.852520 0.352261 -0.647739
v -0.852520 0.352262 0.647739
v -0.975759 0.567340 0.645191
v -0.975759 1.647722 -0.434430
v -0.855359 0.567340 0.645191
v -0.855359 1.647722 -0.434430
v -0.975759 0.354431 0.432423
v -0.975759 1.434813 -0.647198
v -0.855360 0.354431 0.432423
v -0.855359 1.434813 -0.647198
vt 0.158203 0.804688
vt 0.062500 0.000000
vt 0.176758 0.104492
vt 0.176131 0.823869
vt 0.000000 0.000000
vt 0.176131 0.176131
vt 0.823869 0.176131
vt 1.000000 1.000000
vt 0.823869 0.823869
vt 0.429688 0.824219
vt 0.253906 0.000000
vt 0.429688 0.176758
vt 0.580078 0.823242
vt 0.771484 0.002930
vt 0.771484 0.996094
vt -0.000000 0.928711
vt 1.000000 0.071289
vt 1.000000 0.928711
vt 0.403320 0.800781
vt 0.322266 0.018555
vt 0.433594 0.105469
vt 0.867188 0.195312
vt 0.962891 1.000000
vt 0.848633 0.895508
vt 0.634766 0.217773
vt 0.715820 1.000000
vt 0.604492 0.913086
vt 1.000000 1.000000
vt 0.886719 0.000000
vt 1.000000 0.000000
vt 0.000000 0.000000
vt 0.128906 1.000000
vt 0.000000 1.000000
vt 0.772461 0.966797
vt 0.501953 0.022461
vt 0.772461 0.022461
vt 0.267578 0.000000
vt 0.500000 1.000000
vt 0.267578 1.000000
vt 0.500000 0.000000
vt 0.763672 1.000000
vt 0.500000 1.000000
vt 0.158203 0.804688
vt 0.062500 0.000000
vt 0.176758 0.104492
vt 0.176131 0.823869
vt 0.000000 0.000000
vt 0.176131 0.176131
vt 0.823869 0.176131
vt 1.000000 1.000000
vt 0.823869 0.823869
vt 0.429688 0.824219
vt 0.253906 0.000000
vt 0.429688 0.176758
vt 0.580078 0.175781
vt 0.771484 0.996094
vt 0.580078 0.823242
vt -0.000000 0.928711
vt 1.000000 0.071289
vt 1.000000 0.928711
vt 0.403320 0.800781
vt 0.322266 0.018555
vt 0.433594 0.105469
vt 0.867188 0.195312
vt 0.962891 1.000000
vt 0.848633 0.895508
vt 0.634766 0.217773
vt 0.715820 1.000000
vt 0.604492 0.913086
vt 1.000000 1.000000
vt 0.886719 0.000000
vt 1.000000 0.000000
vt 0.000000 0.000000
vt 0.128906 1.000000
vt 0.000000 1.000000
vt 0.772461 0.966797
vt 0.501953 0.022461
vt 0.772461 0.022461
vt 0.267578 0.000000
vt 0.500000 1.000000
vt 0.267578 1.000000
vt 0.500000 0.000000
vt 0.763672 1.000000
vt 0.500000 1.000000
vt 0.158203 0.804688
vt 0.062500 0.000000
vt 0.176758 0.104492
vt 0.176131 0.176131
vt 0.000000 1.000000
vt 0.000000 0.000000
vt 0.823869 0.176131
vt 1.000000 1.000000
vt 0.823869 0.823869
vt 0.429688 0.176758
vt 0.253906 1.000000
vt 0.253906 0.000000
vt 0.580078 0.823242
vt 0.771484 0.002930
vt 0.771484 0.996094
vt -0.000000 0.928711
vt 1.000000 0.071289
vt 1.000000 0.928711
vt 0.403320 0.800781
vt 0.322266 0.018555
vt 0.433594 0.105469
vt 0.867188 0.195312
vt 0.962891 1.000000
vt 0.848633 0.895508
vt 0.604492 0.913086
vt 0.728516 0.094727
vt 0.715820 1.000000
vt 1.000000 1.000000
vt 0.886719 0.000000
vt 1.000000 0.000000
vt 0.000000 0.000000
vt 0.128906 1.000000
vt 0.000000 1.000000
vt 0.772461 0.966797
vt 0.501953 0.022461
vt 0.772461 0.022461
vt 0.267578 0.000000
vt 0.500000 1.000000
vt 0.267578 1.000000
vt 0.500000 0.000000
vt 0.763672 1.000000
vt 0.500000 1.000000
vt 0.158203 0.804688
vt 0.062500 0.000000
vt 0.176758 0.104492
vt 0.176131 0.176131
vt 0.000000 1.000000
vt 0.823869 0.176131
vt 0.823869 0.823869
vt 0.429688 0.824219
vt 0.429688 0.176758
vt 0.580078 0.175781
vt 0.580078 0.823242
vt -0.000000 0.928711
vt 1.000000 0.071289
vt 1.000000 0.928711
vt 0.403320 0.800781
vt 0.322266 0.018555
vt 0.433594 0.105469
vt 0.867188 0.195312
vt 0.962891 1.000000
vt 0.848633 0.895508
vt 0.604492 0.913086
vt 0.728516 0.094727
vt 0.715820 1.000000
vt 1.000000 1.000000
vt 0.886719 0.000000
vt 1.000000 0.000000
vt 0.000000 0.000000
vt 0.128906 1.000000
vt 0.000000 1.000000
vt 0.772461 0.966797
vt 0.501953 0.022461
vt 0.772461 0.022461
vt 0.267578 0.000000
vt 0.500000 1.000000
vt 0.267578 1.000000
vt 0.500000 0.000000
vt 0.763672 1.000000
vt 0.500000 1.000000
vt 0.158203 0.804688
vt 0.062500 0.000000
vt 0.176758 0.104492
vt 0.176131 0.176131
vt 0.000000 1.000000
vt 0.000000 0.000000
vt 0.823869 0.176131
vt 0.823869 0.823869
vt 0.429688 0.824219
vt 0.429688 0.176758
vt 0.580078 0.823242
vt 0.771484 0.996094
vt -0.000000 0.928711
vt 1.000000 0.071289
vt 1.000000 0.928711
vt 0.403320 0.800781
vt 0.322266 0.018555
vt 0.433594 0.105469
vt 0.867188 0.195312
vt 0.962891 1.000000
vt 0.848633 0.895508
vt 0.634766 0.217773
vt 0.715820 1.000000
vt 0.604492 0.913086
vt 1.000000 1.000000
vt 0.886719 0.000000
vt 1.000000 0.000000
vt 0.000000 0.000000
vt 0.128906 1.000000
vt 0.000000 1.000000
vt 0.772461 0.966797
vt 0.501953 0.022461
vt 0.772461 0.022461
vt 0.267578 0.000000
vt 0.500000 1.000000
vt 0.267578 1.000000
vt 0.500000 0.000000
vt 0.763672 1.000000
vt 0.500000 1.000000
vt 0.158203 0.804688
vt 0.062500 0.000000
vt 0.176758 0.104492
vt 0.176131 0.823869
vt 0.176131 0.176131
vt 0.823869 0.176131
vt 1.000000 1.000000
vt 0.823869 0.823869
vt 0.429688 0.824219
vt 0.253906 0.000000
vt 0.429688 0.176758
vt 0.580078 0.175781
vt 0.580078 0.823242
vt 1.000000 0.928711
vt -0.000000 0.071289
vt 1.000000 0.071289
vt 0.403320 0.800781
vt 0.322266 0.018555
vt 0.433594 0.105469
vt 0.867188 0.195312
vt 0.962891 1.000000
vt 0.848633 0.895508
vt 0.634766 0.217773
vt 0.715820 1.000000
vt 0.604492 0.913086
vt 1.000000 1.000000
vt 0.886719 0.000000
vt 1.000000 0.000000
vt 0.000000 0.000000
vt 0.128906 1.000000
vt 0.000000 1.000000
vt 0.772461 0.966797
vt 0.501953 0.022461
vt 0.772461 0.022461
vt 0.267578 1.000000
vt 0.500000 0.000000
vt 0.500000 1.000000
vt 0.500000 0.000000
vt 0.763672 1.000000
vt 0.500000 1.000000
vt 0.062500 0.908203
vt 0.000000 1.000000
vt 1.000000 0.000000
vt 0.253906 1.000000
vt 0.580078 0.175781
vt -0.000000 0.071289
vt 0.309570 0.923828
vt 0.962891 0.091797
vt 0.728516 0.094727
vt 0.886719 1.000000
vt 0.128906 0.000000
vt 0.504883 0.966797
vt 0.500000 0.000000
vt 0.763672 0.000000
vt 0.062500 0.908203
vt 1.000000 0.000000
vt 0.253906 1.000000
vt 0.771484 0.002930
vt -0.000000 0.071289
vt 0.309570 0.923828
vt 0.962891 0.091797
vt 0.728516 0.094727
vt 0.886719 1.000000
vt 0.128906 0.000000
vt 0.504883 0.966797
vt 0.500000 0.000000
vt 0.763672 0.000000
vt 0.062500 0.908203
vt 0.176131 0.823869
vt 1.000000 0.000000
vt 0.429688 0.824219
vt 0.580078 0.175781
vt -0.000000 0.071289
vt 0.309570 0.923828
vt 0.962891 0.091797
vt 0.634766 0.217773
vt 0.886719 1.000000
vt 0.128906 0.000000
vt 0.504883 0.966797
vt 0.500000 0.000000
vt 0.763672 0.000000
vt 0.062500 0.908203
vt 0.176131 0.823869
vt -0.000000 0.071289
vt 0.309570 0.923828
vt 0.962891 0.091797
vt 0.634766 0.217773
vt 0.886719 1.000000
vt 0.128906 0.000000
vt 0.504883 0.966797
vt 0.500000 0.000000
vt 0.763672 0.000000
vt 0.062500 0.908203
vt 0.176131 0.823869
vt 0.253906 1.000000
vt 0.580078 0.175781
vt -0.000000 0.071289
vt 0.309570 0.923828
vt 0.962891 0.091797
vt 0.728516 0.094727
vt 0.886719 1.000000
vt 0.128906 0.000000
vt 0.504883 0.966797
vt 0.500000 0.000000
vt 0.763672 0.000000
vt 0.062500 0.908203
vt 1.000000 0.000000
vt 0.771484 0.002930
vt -0.000000 0.928711
vt 0.309570 0.923828
vt 0.962891 0.091797
vt 0.728516 0.094727
vt 0.886719 1.000000
vt 0.128906 0.000000
vt 0.504883 0.966797
vt 0.267578 0.000000
vt 0.763672 0.000000
vn 0.0000 1.0000 -0.0000
vn 0.0000 -0.0000 1.0000
vn 1.0000 0.0000 0.0000
vn 0.0000 -1.0000 0.0000
vn -1.0000 0.0000 0.0000
vn -0.7069 -0.7074 0.0000
vn 0.7069 0.7074 0.0000
vn -0.7069 0.7073 0.0000
vn 0.7069 -0.7073 0.0000
vn -0.0000 -0.0000 -1.0000
vn -0.7069 0.7074 0.0000
vn 0.7069 -0.7074 0.0000
vn -0.7069 -0.7073 0.0000
vn 0.7069 0.7073 0.0000
vn -0.7069 0.0000 0.7074
vn 0.7069 -0.0000 -0.7074
vn -0.7069 -0.0000 -0.7073
vn 0.7069 0.0000 0.7073
vn 0.0000 0.7069 -0.7074
vn 0.0000 -0.7069 0.7074
vn 0.0000 0.7069 0.7073
vn 0.0000 -0.7069 -0.7073
vn 0.0000 -0.7069 -0.7074
vn 0.0000 0.7069 0.7074
vn 0.0000 -0.7069 0.7073
vn 0.0000 0.7069 -0.7073
s 1
f 4/1/1 5/2/1 1/3/1
f 2/4/2 51/5/2 1/6/2
f 4/7/2 71/8/2 3/9/2
f 1/10/2 70/11/2 4/12/2
f 2/13/2 71/14/2 34/15/2
f 7/16/2 5/17/2 8/18/2
f 1/19/3 6/20/3 2/21/3
f 2/22/4 7/23/4 3/24/4
f 3/25/5 8/26/5 4/27/5
f 10/28/6 11/29/6 9/30/6
f 16/31/7 13/32/7 15/33/7
f 14/34/2 9/35/2 13/36/2
f 14/37/8 12/38/8 10/39/8
f 15/40/9 9/41/9 11/42/9
f 21/43/4 22/44/4 18/45/4
f 19/46/10 88/47/10 18/48/10
f 21/49/10 53/50/10 20/51/10
f 18/52/10 17/53/10 21/54/10
f 20/55/10 52/56/10 19/57/10
f 24/58/10 22/59/10 25/60/10
f 18/61/3 23/62/3 19/63/3
f 19/64/1 24/65/1 20/66/1
f 20/67/5 25/68/5 21/69/5
f 27/70/11 28/71/11 26/72/11
f 33/73/12 30/74/12 32/75/12
f 31/76/10 26/77/10 30/78/10
f 31/79/13 29/80/13 27/81/13
f 32/82/14 26/83/14 28/84/14
f 38/85/10 39/86/10 35/87/10
f 35/88/1 88/89/1 34/90/1
f 38/91/1 17/92/1 37/93/1
f 38/94/1 34/95/1 71/96/1
f 36/97/1 17/98/1 88/99/1
f 41/100/1 39/101/1 42/102/1
f 35/103/3 40/104/3 36/105/3
f 36/106/2 41/107/2 37/108/2
f 38/109/5 41/110/5 42/111/5
f 44/112/15 45/113/15 43/114/15
f 50/115/16 47/116/16 49/117/16
f 48/118/1 43/119/1 47/120/1
f 48/121/17 46/122/17 44/123/17
f 49/124/18 43/125/18 45/126/18
f 57/127/2 58/128/2 54/129/2
f 54/130/1 52/131/1 51/5/1
f 57/132/1 53/50/1 56/133/1
f 54/134/1 70/11/1 57/135/1
f 56/136/1 52/56/1 55/137/1
f 60/138/1 58/139/1 61/140/1
f 54/141/5 59/142/5 55/143/5
f 55/144/10 60/145/10 56/146/10
f 57/147/3 60/148/3 61/149/3
f 63/150/16 64/151/16 62/152/16
f 69/153/15 66/154/15 68/155/15
f 67/156/1 62/157/1 66/158/1
f 67/159/18 65/160/18 63/161/18
f 68/162/17 62/163/17 64/164/17
f 75/165/2 76/166/2 72/167/2
f 72/168/5 53/169/5 70/170/5
f 75/171/5 17/92/5 74/172/5
f 72/173/5 71/96/5 75/174/5
f 73/175/5 17/98/5 53/176/5
f 78/177/5 76/178/5 79/179/5
f 72/180/4 77/181/4 73/182/4
f 73/183/10 78/184/10 74/185/10
f 74/186/1 79/187/1 75/188/1
f 81/189/19 82/190/19 80/191/19
f 87/192/20 84/193/20 86/194/20
f 85/195/5 80/196/5 84/197/5
f 85/198/21 83/199/21 81/200/21
f 86/201/22 80/202/22 82/203/22
f 92/204/2 93/205/2 89/206/2
f 90/207/3 34/90/3 89/208/3
f 92/209/3 52/210/3 91/211/3
f 89/212/3 51/213/3 92/214/3
f 91/215/3 88/99/3 90/216/3
f 96/217/3 94/218/3 93/219/3
f 89/220/1 94/221/1 90/222/1
f 90/223/10 95/224/10 91/225/10
f 91/226/4 96/227/4 92/228/4
f 98/229/23 99/230/23 97/231/23
f 104/232/24 101/233/24 103/234/24
f 102/235/3 97/236/3 101/237/3
f 98/238/25 104/239/25 100/240/25
f 103/241/26 97/242/26 99/243/26
f 4/1/1 8/244/1 5/2/1
f 2/4/2 34/245/2 51/5/2
f 4/7/2 70/246/2 71/8/2
f 1/10/2 51/247/2 70/11/2
f 2/13/2 3/248/2 71/14/2
f 7/16/2 6/249/2 5/17/2
f 1/19/3 5/250/3 6/20/3
f 2/22/4 6/251/4 7/23/4
f 3/25/5 7/252/5 8/26/5
f 10/28/6 12/253/6 11/29/6
f 16/31/7 14/254/7 13/32/7
f 14/34/2 10/255/2 9/35/2
f 14/37/8 16/256/8 12/38/8
f 15/40/9 13/257/9 9/41/9
f 21/43/4 25/258/4 22/44/4
f 19/46/10 52/131/10 88/47/10
f 21/49/10 17/259/10 53/50/10
f 18/52/10 88/260/10 17/53/10
f 20/55/10 53/261/10 52/56/10
f 24/58/10 23/262/10 22/59/10
f 18/61/3 22/263/3 23/62/3
f 19/64/1 23/264/1 24/65/1
f 20/67/5 24/265/5 25/68/5
f 27/70/11 29/266/11 28/71/11
f 33/73/12 31/267/12 30/74/12
f 31/76/10 27/268/10 26/77/10
f 31/79/13 33/269/13 29/80/13
f 32/82/14 30/270/14 26/83/14
f 38/85/10 42/271/10 39/86/10
f 35/88/1 36/272/1 88/89/1
f 38/91/1 71/273/1 17/92/1
f 38/94/1 35/274/1 34/95/1
f 36/97/1 37/275/1 17/98/1
f 41/100/1 40/276/1 39/101/1
f 35/103/3 39/277/3 40/104/3
f 36/106/2 40/278/2 41/107/2
f 38/109/5 37/279/5 41/110/5
f 44/112/15 46/280/15 45/113/15
f 50/115/16 48/281/16 47/116/16
f 48/118/1 44/282/1 43/119/1
f 48/121/17 50/283/17 46/122/17
f 49/124/18 47/284/18 43/125/18
f 57/127/2 61/285/2 58/128/2
f 54/130/1 55/286/1 52/131/1
f 57/132/1 70/246/1 53/50/1
f 54/134/1 51/247/1 70/11/1
f 56/136/1 53/261/1 52/56/1
f 60/138/1 59/287/1 58/139/1
f 54/141/5 58/288/5 59/142/5
f 55/144/10 59/289/10 60/145/10
f 57/147/3 56/290/3 60/148/3
f 63/150/16 65/291/16 64/151/16
f 69/153/15 67/292/15 66/154/15
f 67/156/1 63/293/1 62/157/1
f 67/159/18 69/294/18 65/160/18
f 68/162/17 66/295/17 62/163/17
f 75/165/2 79/296/2 76/166/2
f 72/168/5 73/297/5 53/169/5
f 75/171/5 71/273/5 17/92/5
f 72/173/5 70/298/5 71/96/5
f 73/175/5 74/299/5 17/98/5
f 78/177/5 77/300/5 76/178/5
f 72/180/4 76/301/4 77/181/4
f 73/183/10 77/302/10 78/184/10
f 74/186/1 78/303/1 79/187/1
f 81/189/19 83/304/19 82/190/19
f 87/192/20 85/305/20 84/193/20
f 85/195/5 81/306/5 80/196/5
f 85/198/21 87/307/21 83/199/21
f 86/201/22 84/308/22 80/202/22
f 92/204/2 96/309/2 93/205/2
f 90/207/3 88/89/3 34/90/3
f 92/209/3 51/310/3 52/210/3
f 89/212/3 34/95/3 51/213/3
f 91/215/3 52/311/3 88/99/3
f 96/217/3 95/312/3 94/218/3
f 89/220/1 93/313/1 94/221/1
f 90/223/10 94/314/10 95/224/10
f 91/226/4 95/315/4 96/227/4
f 98/229/23 100/316/23 99/230/23
f 104/232/24 102/317/24 101/233/24
f 102/235/3 98/318/3 97/236/3
f 98/238/25 102/319/25 104/239/25
f 103/241/26 101/320/26 97/242/26
