{
	"asset":{
		"generator":"Khronos glTF Blender I/O v3.6.27",
		"version":"2.0"
	},
	"extensionsUsed":[
		"KHR_materials_specular",
		"KHR_materials_ior"
	],
	"scene":0,
	"scenes":[
		{
			"name":"Scene",
			"nodes":[
				0
			]
		}
	],
	"nodes":[
		{
			"mesh":0,
			"name":"Tree-01-4"
		}
	],
	"materials":[
		{
			"doubleSided":true,
			"extensions":{
				"KHR_materials_specular":{
					"specularColorFactor":[
						0,
						0,
						0
					]
				},
				"KHR_materials_ior":{
					"ior":1.4500000476837158
				}
			},
			"name":"trunk-01",
			"pbrMetallicRoughness":{
				"baseColorTexture":{
					"index":0
				},
				"metallicFactor":0,
				"roughnessFactor":0.3431818187236786
			}
		},
		{
			"alphaMode":"BLEND",
			"doubleSided":true,
			"extensions":{
				"KHR_materials_specular":{
					"specularColorFactor":[
						0,
						0,
						0
					]
				},
				"KHR_materials_ior":{
					"ior":1.4500000476837158
				}
			},
			"name":"branch-1-01",
			"pbrMetallicRoughness":{
				"baseColorTexture":{
					"index":1
				},
				"metallicFactor":0,
				"roughnessFactor":0.5
			}
		},
		{
			"alphaMode":"BLEND",
			"doubleSided":true,
			"extensions":{
				"KHR_materials_specular":{
					"specularColorFactor":[
						0,
						0,
						0
					]
				},
				"KHR_materials_ior":{
					"ior":1.4500000476837158
				}
			},
			"name":"branch-1-02",
			"pbrMetallicRoughness":{
				"baseColorTexture":{
					"index":2
				},
				"metallicFactor":0,
				"roughnessFactor":0.5
			}
		}
	],
	"meshes":[
		{
			"name":"BezierCurve.040",
			"primitives":[
				{
					"attributes":{
						"POSITION":0,
						"NORMAL":1,
						"TEXCOORD_0":2,
						"TANGENT":3
					},
					"indices":4,
					"material":0
				},
				{
					"attributes":{
						"POSITION":5,
						"NORMAL":6,
						"TEXCOORD_0":7,
						"TANGENT":8
					},
					"indices":9,
					"material":1
				},
				{
					"attributes":{
						"POSITION":10,
						"NORMAL":11,
						"TEXCOORD_0":12,
						"TANGENT":13
					},
					"indices":14,
					"material":2
				}
			]
		}
	],
	"textures":[
		{
			"sampler":0,
			"source":0
		},
		{
			"sampler":0,
			"source":1
		},
		{
			"sampler":0,
			"source":2
		}
	],
	"images":[
		{
			"mimeType":"image/jpeg",
			"name":"bark",
			"uri":"bark.jpg"
		},
		{
			"mimeType":"image/png",
			"name":"branch-01",
			"uri":"branch-01.png"
		},
		{
			"mimeType":"image/png",
			"name":"branch-02",
			"uri":"branch-02.png"
		}
	],
	"accessors":[
		{
			"bufferView":0,
			"componentType":5126,
			"count":170,
			"max":[
				0.6782970428466797,
				4.758853912353516,
				0.9323234558105469
			],
			"min":[
				-0.13690567016601562,
				0,
				-0.17395782470703125
			],
			"type":"VEC3"
		},
		{
			"bufferView":1,
			"componentType":5126,
			"count":170,
			"type":"VEC3"
		},
		{
			"bufferView":2,
			"componentType":5126,
			"count":170,
			"type":"VEC2"
		},
		{
			"bufferView":3,
			"componentType":5126,
			"count":170,
			"type":"VEC4"
		},
		{
			"bufferView":4,
			"componentType":5123,
			"count":360,
			"type":"SCALAR"
		},
		{
			"bufferView":5,
			"componentType":5126,
			"count":139,
			"max":[
				2.4388418197631836,
				5.366044998168945,
				1.9007835388183594
			],
			"min":[
				-2.2775278091430664,
				-0.01782703399658203,
				-1.7576789855957031
			],
			"type":"VEC3"
		},
		{
			"bufferView":6,
			"componentType":5126,
			"count":139,
			"type":"VEC3"
		},
		{
			"bufferView":7,
			"componentType":5126,
			"count":139,
			"type":"VEC2"
		},
		{
			"bufferView":8,
			"componentType":5126,
			"count":139,
			"type":"VEC4"
		},
		{
			"bufferView":9,
			"componentType":5123,
			"count":336,
			"type":"SCALAR"
		},
		{
			"bufferView":10,
			"componentType":5126,
			"count":176,
			"max":[
				2.425729751586914,
				5.387494087219238,
				1.966024398803711
			],
			"min":[
				-1.572530746459961,
				0.00950765609741211,
				-2.054615020751953
			],
			"type":"VEC3"
		},
		{
			"bufferView":11,
			"componentType":5126,
			"count":176,
			"type":"VEC3"
		},
		{
			"bufferView":12,
			"componentType":5126,
			"count":176,
			"type":"VEC2"
		},
		{
			"bufferView":13,
			"componentType":5126,
			"count":176,
			"type":"VEC4"
		},
		{
			"bufferView":14,
			"componentType":5123,
			"count":408,
			"type":"SCALAR"
		}
	],
	"bufferViews":[
		{
			"buffer":0,
			"byteLength":2040,
			"byteOffset":0,
			"target":34962
		},
		{
			"buffer":0,
			"byteLength":2040,
			"byteOffset":2040,
			"target":34962
		},
		{
			"buffer":0,
			"byteLength":1360,
			"byteOffset":4080,
			"target":34962
		},
		{
			"buffer":0,
			"byteLength":2720,
			"byteOffset":5440,
			"target":34962
		},
		{
			"buffer":0,
			"byteLength":720,
			"byteOffset":8160,
			"target":34963
		},
		{
			"buffer":0,
			"byteLength":1668,
			"byteOffset":8880,
			"target":34962
		},
		{
			"buffer":0,
			"byteLength":1668,
			"byteOffset":10548,
			"target":34962
		},
		{
			"buffer":0,
			"byteLength":1112,
			"byteOffset":12216,
			"target":34962
		},
		{
			"buffer":0,
			"byteLength":2224,
			"byteOffset":13328,
			"target":34962
		},
		{
			"buffer":0,
			"byteLength":672,
			"byteOffset":15552,
			"target":34963
		},
		{
			"buffer":0,
			"byteLength":2112,
			"byteOffset":16224,
			"target":34962
		},
		{
			"buffer":0,
			"byteLength":2112,
			"byteOffset":18336,
			"target":34962
		},
		{
			"buffer":0,
			"byteLength":1408,
			"byteOffset":20448,
			"target":34962
		},
		{
			"buffer":0,
			"byteLength":2816,
			"byteOffset":21856,
			"target":34962
		},
		{
			"buffer":0,
			"byteLength":816,
			"byteOffset":24672,
			"target":34963
		}
	],
	"samplers":[
		{
			"magFilter":9729,
			"minFilter":9987
		}
	],
	"buffers":[
		{
			"byteLength":25488,
			"uri":"tree_1_4.bin"
		}
	]
}
