{
	"asset":{
		"generator":"Khronos glTF Blender I/O v3.6.27",
		"version":"2.0"
	},
	"extensionsUsed":[
		"KHR_materials_specular",
		"KHR_materials_ior"
	],
	"scene":0,
	"scenes":[
		{
			"name":"Scene",
			"nodes":[
				0
			]
		}
	],
	"nodes":[
		{
			"mesh":0,
			"name":"Bush-05",
			"translation":[
				2.8328065872192383,
				0,
				22.140409469604492
			]
		}
	],
	"materials":[
		{
			"doubleSided":true,
			"extensions":{
				"KHR_materials_specular":{
					"specularColorFactor":[
						0,
						0,
						0
					]
				},
				"KHR_materials_ior":{
					"ior":1.4500000476837158
				}
			},
			"name":"trunk-01",
			"pbrMetallicRoughness":{
				"baseColorTexture":{
					"index":0
				},
				"metallicFactor":0,
				"roughnessFactor":0.3431818187236786
			}
		},
		{
			"alphaMode":"BLEND",
			"doubleSided":true,
			"extensions":{
				"KHR_materials_specular":{
					"specularColorFactor":[
						0,
						0,
						0
					]
				},
				"KHR_materials_ior":{
					"ior":1.4500000476837158
				}
			},
			"name":"branch-1-01",
			"pbrMetallicRoughness":{
				"baseColorTexture":{
					"index":1
				},
				"metallicFactor":0,
				"roughnessFactor":0.5
			}
		},
		{
			"alphaMode":"BLEND",
			"doubleSided":true,
			"extensions":{
				"KHR_materials_specular":{
					"specularColorFactor":[
						0,
						0,
						0
					]
				},
				"KHR_materials_ior":{
					"ior":1.4500000476837158
				}
			},
			"name":"branch-1-02",
			"pbrMetallicRoughness":{
				"baseColorTexture":{
					"index":2
				},
				"metallicFactor":0,
				"roughnessFactor":0.5
			}
		}
	],
	"meshes":[
		{
			"name":"BezierCurve.027",
			"primitives":[
				{
					"attributes":{
						"POSITION":0,
						"NORMAL":1,
						"TEXCOORD_0":2,
						"TANGENT":3
					},
					"indices":4,
					"material":0
				},
				{
					"attributes":{
						"POSITION":5,
						"NORMAL":6,
						"TEXCOORD_0":7,
						"TANGENT":8
					},
					"indices":9,
					"material":1
				},
				{
					"attributes":{
						"POSITION":10,
						"NORMAL":11,
						"TEXCOORD_0":12,
						"TANGENT":13
					},
					"indices":14,
					"material":2
				}
			]
		}
	],
	"textures":[
		{
			"sampler":0,
			"source":0
		},
		{
			"sampler":0,
			"source":1
		},
		{
			"sampler":0,
			"source":2
		}
	],
	"images":[
		{
			"mimeType":"image/jpeg",
			"name":"bark",
			"uri":"bark.jpg"
		},
		{
			"mimeType":"image/png",
			"name":"branch-01",
			"uri":"branch-01.png"
		},
		{
			"mimeType":"image/png",
			"name":"branch-02",
			"uri":"branch-02.png"
		}
	],
	"accessors":[
		{
			"bufferView":0,
			"componentType":5126,
			"count":279,
			"max":[
				0.3828623294830322,
				1.9231780767440796,
				0.7699260711669922
			],
			"min":[
				-0.6543300151824951,
				-0.00673067569732666,
				-0.4331989288330078
			],
			"type":"VEC3"
		},
		{
			"bufferView":1,
			"componentType":5126,
			"count":279,
			"type":"VEC3"
		},
		{
			"bufferView":2,
			"componentType":5126,
			"count":279,
			"type":"VEC2"
		},
		{
			"bufferView":3,
			"componentType":5126,
			"count":279,
			"type":"VEC4"
		},
		{
			"bufferView":4,
			"componentType":5123,
			"count":537,
			"type":"SCALAR"
		},
		{
			"bufferView":5,
			"componentType":5126,
			"count":165,
			"max":[
				1.9567499160766602,
				2.185898780822754,
				1.6120243072509766
			],
			"min":[
				-2.094125747680664,
				0.05084633827209473,
				-2.428434371948242
			],
			"type":"VEC3"
		},
		{
			"bufferView":6,
			"componentType":5126,
			"count":165,
			"type":"VEC3"
		},
		{
			"bufferView":7,
			"componentType":5126,
			"count":165,
			"type":"VEC2"
		},
		{
			"bufferView":8,
			"componentType":5126,
			"count":165,
			"type":"VEC4"
		},
		{
			"bufferView":9,
			"componentType":5123,
			"count":432,
			"type":"SCALAR"
		},
		{
			"bufferView":10,
			"componentType":5126,
			"count":287,
			"max":[
				2.13852596282959,
				2.2336995601654053,
				2.1971397399902344
			],
			"min":[
				-1.666643738746643,
				0.0021976232528686523,
				-2.3456172943115234
			],
			"type":"VEC3"
		},
		{
			"bufferView":11,
			"componentType":5126,
			"count":287,
			"type":"VEC3"
		},
		{
			"bufferView":12,
			"componentType":5126,
			"count":287,
			"type":"VEC2"
		},
		{
			"bufferView":13,
			"componentType":5126,
			"count":287,
			"type":"VEC4"
		},
		{
			"bufferView":14,
			"componentType":5123,
			"count":696,
			"type":"SCALAR"
		}
	],
	"bufferViews":[
		{
			"buffer":0,
			"byteLength":3348,
			"byteOffset":0,
			"target":34962
		},
		{
			"buffer":0,
			"byteLength":3348,
			"byteOffset":3348,
			"target":34962
		},
		{
			"buffer":0,
			"byteLength":2232,
			"byteOffset":6696,
			"target":34962
		},
		{
			"buffer":0,
			"byteLength":4464,
			"byteOffset":8928,
			"target":34962
		},
		{
			"buffer":0,
			"byteLength":1074,
			"byteOffset":13392,
			"target":34963
		},
		{
			"buffer":0,
			"byteLength":1980,
			"byteOffset":14468,
			"target":34962
		},
		{
			"buffer":0,
			"byteLength":1980,
			"byteOffset":16448,
			"target":34962
		},
		{
			"buffer":0,
			"byteLength":1320,
			"byteOffset":18428,
			"target":34962
		},
		{
			"buffer":0,
			"byteLength":2640,
			"byteOffset":19748,
			"target":34962
		},
		{
			"buffer":0,
			"byteLength":864,
			"byteOffset":22388,
			"target":34963
		},
		{
			"buffer":0,
			"byteLength":3444,
			"byteOffset":23252,
			"target":34962
		},
		{
			"buffer":0,
			"byteLength":3444,
			"byteOffset":26696,
			"target":34962
		},
		{
			"buffer":0,
			"byteLength":2296,
			"byteOffset":30140,
			"target":34962
		},
		{
			"buffer":0,
			"byteLength":4592,
			"byteOffset":32436,
			"target":34962
		},
		{
			"buffer":0,
			"byteLength":1392,
			"byteOffset":37028,
			"target":34963
		}
	],
	"samplers":[
		{
			"magFilter":9729,
			"minFilter":9987
		}
	],
	"buffers":[
		{
			"byteLength":38420,
			"uri":"bush_5.bin"
		}
	]
}
