{
	"asset":{
		"generator":"Khronos glTF Blender I/O v4.4.56",
		"version":"2.0"
	},
	"scene":0,
	"scenes":[
		{
			"name":"Scene",
			"nodes":[
				0
			]
		}
	],
	"nodes":[
		{
			"mesh":0,
			"name":"Rock_5"
		}
	],
	"materials":[
		{
			"doubleSided":true,
			"name":"Rock"
		}
	],
	"meshes":[
		{
			"name":"Cube.005",
			"primitives":[
				{
					"attributes":{
						"POSITION":0,
						"NORMAL":1,
						"TEXCOORD_0":2,
						"TANGENT":3
					},
					"indices":4,
					"material":0
				}
			]
		}
	],
	"accessors":[
		{
			"bufferView":0,
			"componentType":5126,
			"count":949,
			"max":[
				0.4322183132171631,
				1.5929020643234253,
				0.6944564580917358
			],
			"min":[
				-0.8584786057472229,
				-0.10166077315807343,
				-0.6228621602058411
			],
			"type":"VEC3"
		},
		{
			"bufferView":1,
			"componentType":5126,
			"count":949,
			"type":"VEC3"
		},
		{
			"bufferView":2,
			"componentType":5126,
			"count":949,
			"type":"VEC2"
		},
		{
			"bufferView":3,
			"componentType":5126,
			"count":949,
			"type":"VEC4"
		},
		{
			"bufferView":4,
			"componentType":5123,
			"count":1896,
			"type":"SCALAR"
		}
	],
	"bufferViews":[
		{
			"buffer":0,
			"byteLength":11388,
			"byteOffset":0,
			"target":34962
		},
		{
			"buffer":0,
			"byteLength":11388,
			"byteOffset":11388,
			"target":34962
		},
		{
			"buffer":0,
			"byteLength":7592,
			"byteOffset":22776,
			"target":34962
		},
		{
			"buffer":0,
			"byteLength":15184,
			"byteOffset":30368,
			"target":34962
		},
		{
			"buffer":0,
			"byteLength":3792,
			"byteOffset":45552,
			"target":34963
		}
	],
	"buffers":[
		{
			"byteLength":49344,
			"uri":"rock_5.bin"
		}
	]
}
